  0
SECTION
  2
HEADER
  9
$ACADVER
  1
AC1014
  9
$HANDSEED
  5
FFFF
  9
$MEASUREMENT
 70
     1
  0
ENDSEC
  0
SECTION
  2
TABLES
  0
TABLE
  2
VPORT
  5
8
330
0
100
AcDbSymbolTable
 70
     4
  0
VPORT
  5
2E
330
8
100
AcDbSymbolTableRecord
100
AcDbViewportTableRecord
  2
*ACTIVE
 70
     0
 10
0.0
 20
0.0
 11
1.0
 21
1.0
 12
210.0
 22
148.5
 13
0.0
 23
0.0
 14
10.0
 24
10.0
 15
10.0
 25
10.0
 16
0.0
 26
0.0
 36
1.0
 17
0.0
 27
0.0
 37
0.0
 40
341.0
 41
1.24
 42
50.0
 43
0.0
 44
0.0
 50
0.0
 51
0.0
 71
     0
 72
   100
 73
     1
 74
     3
 75
     0
 76
     0
 77
     0
 78
     0
  0
ENDTAB
  0
TABLE
  2
LTYPE
  5
5
330
0
100
AcDbSymbolTable
 70
     1
  0
LTYPE
  5
14
330
5
100
AcDbSymbolTableRecord
100
AcDbLinetypeTableRecord
  2
BYBLOCK
 70
     0
  3

 72
    65
 73
     0
 40
0.0
  0
LTYPE
  5
15
330
5
100
AcDbSymbolTableRecord
100
AcDbLinetypeTableRecord
  2
BYLAYER
 70
     0
  3

 72
    65
 73
     0
 40
0.0
  0
LTYPE
  5
16
330
5
100
AcDbSymbolTableRecord
100
AcDbLinetypeTableRecord
  2
CONTINUOUS
 70
     0
  3
Solid line
 72
    65
 73
     0
 40
0.0
  0
ENDTAB
  0
TABLE
  2
LAYER
  5
2
100
AcDbSymbolTable
 70
2
  0
LAYER
  5
50
100
AcDbSymbolTableRecord
100
AcDbLayerTableRecord
  2
0
 70
0
  6
CONTINUOUS
  0
LAYER
  5
51
100
AcDbSymbolTableRecord
100
AcDbLayerTableRecord
  2
Calque_1
 70
0
  6
CONTINUOUS
  0
ENDTAB
  0
TABLE
  2
STYLE
  5
3
330
0
100
AcDbSymbolTable
 70
     1
  0
STYLE
  5
11
330
3
100
AcDbSymbolTableRecord
100
AcDbTextStyleTableRecord
  2
STANDARD
 70
     0
 40
0.0
 41
1.0
 50
0.0
 71
     0
 42
2.5
  3
txt
  4

  0
ENDTAB
  0
TABLE
  2
VIEW
  5
6
330
0
100
AcDbSymbolTable
 70
     0
  0
ENDTAB
  0
TABLE
  2
UCS
  5
7
330
0
100
AcDbSymbolTable
 70
     0
  0
ENDTAB
  0
TABLE
  2
APPID
  5
9
330
0
100
AcDbSymbolTable
 70
     2
  0
APPID
  5
12
330
9
100
AcDbSymbolTableRecord
100
AcDbRegAppTableRecord
  2
ACAD
 70
     0
  0
ENDTAB
  0
TABLE
  2
DIMSTYLE
  5
A
330
0
100
AcDbSymbolTable
 70
     1
  0
DIMSTYLE
105
27
330
A
100
AcDbSymbolTableRecord
100
AcDbDimStyleTableRecord
  2
ISO-25
 70
     0
  3

  4

  5

  6

  7

 40
1.0
 41
2.5
 42
0.625
 43
3.75
 44
1.25
 45
0.0
 46
0.0
 47
0.0
 48
0.0
140
2.5
141
2.5
142
0.0
143
0.03937007874016
144
1.0
145
0.0
146
1.0
147
0.625
 71
     0
 72
     0
 73
     0
 74
     0
 75
     0
 76
     0
 77
     1
 78
     8
170
     0
171
     3
172
     1
173
     0
174
     0
175
     0
176
     0
177
     0
178
     0
270
     2
271
     2
272
     2
273
     2
274
     3
340
11
275
     0
280
     0
281
     0
282
     0
283
     0
284
     8
285
     0
286
     0
287
     3
288
     0
  0
ENDTAB
  0
TABLE
  2
BLOCK_RECORD
  5
1
330
0
100
AcDbSymbolTable
 70
     1
  0
BLOCK_RECORD
  5
1F
330
1
100
AcDbSymbolTableRecord
100
AcDbBlockTableRecord
  2
*MODEL_SPACE
  0
BLOCK_RECORD
  5
1B
330
1
100
AcDbSymbolTableRecord
100
AcDbBlockTableRecord
  2
*PAPER_SPACE
  0
ENDTAB
  0
ENDSEC
  0
SECTION
  2
BLOCKS
  0
BLOCK
  5
20
330
1F
100
AcDbEntity
  8
0
100
AcDbBlockBegin
  2
*MODEL_SPACE
 70
     0
 10
0.0
 20
0.0
 30
0.0
  3
*MODEL_SPACE
  1

  0
ENDBLK
  5
21
330
1F
100
AcDbEntity
  8
0
100
AcDbBlockEnd
  0
BLOCK
  5
1C
330
1B
100
AcDbEntity
 67
     1
  8
0
100
AcDbBlockBegin
  2
*PAPER_SPACE
  1

  0
ENDBLK
  5
1D
330
1B
100
AcDbEntity
 67
     1
  8
0
100
AcDbBlockEnd
  0
ENDSEC
  0
SECTION
  2
ENTITIES
  0
LWPOLYLINE
  5
100
100
AcDbEntity
  8
Calque_1
 62
7
100
AcDbPolyline
 90
240
 70
1
 10
8.892950
 20
0.029870
 30
0.0
 10
8.157614
 20
0.012670
 30
0.0
 10
7.610419
 20
0.148350
 30
0.0
 10
7.230953
 20
0.414690
 30
0.0
 10
6.998800
 20
0.789520
 30
0.0
 10
6.893548
 20
1.250700
 30
0.0
 10
6.894778
 20
1.776050
 30
0.0
 10
6.982083
 20
2.343410
 30
0.0
 10
7.135046
 20
2.930620
 30
0.0
 10
7.209195
 20
3.558780
 30
0.0
 10
7.268879
 20
4.185110
 30
0.0
 10
7.321394
 20
4.809810
 30
0.0
 10
7.374034
 20
5.433080
 30
0.0
 10
7.434094
 20
6.055110
 30
0.0
 10
7.508870
 20
6.676110
 30
0.0
 10
7.605656
 20
7.296260
 30
0.0
 10
7.731747
 20
7.915770
 30
0.0
 10
7.845536
 20
8.686440
 30
0.0
 10
7.996607
 20
9.446740
 30
0.0
 10
8.176266
 20
10.199190
 30
0.0
 10
8.375822
 20
10.946310
 30
0.0
 10
8.586581
 20
11.690620
 30
0.0
 10
8.799850
 20
12.434650
 30
0.0
 10
9.006937
 20
13.180900
 30
0.0
 10
9.199147
 20
13.931910
 30
0.0
 10
9.418540
 20
14.635840
 30
0.0
 10
9.627349
 20
15.359910
 30
0.0
 10
9.809423
 20
16.097820
 30
0.0
 10
9.948609
 20
16.843270
 30
0.0
 10
10.028757
 20
17.589960
 30
0.0
 10
10.033757
 20
18.331590
 30
0.0
 10
9.947371
 20
19.061860
 30
0.0
 10
9.753491
 20
19.774470
 30
0.0
 10
9.578468
 20
20.120030
 30
0.0
 10
9.347850
 20
20.395340
 30
0.0
 10
9.071758
 20
20.612810
 30
0.0
 10
8.760316
 20
20.784840
 30
0.0
 10
8.423645
 20
20.923850
 30
0.0
 10
8.071869
 20
21.042240
 30
0.0
 10
7.715110
 20
21.152420
 30
0.0
 10
7.363491
 20
21.266800
 30
0.0
 10
6.987009
 20
21.542130
 30
0.0
 10
6.560311
 20
21.822680
 30
0.0
 10
6.121756
 20
22.109210
 30
0.0
 10
5.709703
 20
22.402500
 30
0.0
 10
5.362511
 20
22.703320
 30
0.0
 10
5.118539
 20
23.012460
 30
0.0
 10
5.016146
 20
23.330680
 30
0.0
 10
5.093691
 20
23.658770
 30
0.0
 10
4.563783
 20
24.147110
 30
0.0
 10
4.054230
 20
24.655710
 30
0.0
 10
3.569110
 20
25.185780
 30
0.0
 10
3.112503
 20
25.738510
 30
0.0
 10
2.688489
 20
26.315120
 30
0.0
 10
2.301146
 20
26.916820
 30
0.0
 10
1.954553
 20
27.544820
 30
0.0
 10
1.652791
 20
28.200320
 30
0.0
 10
1.472020
 20
28.558650
 30
0.0
 10
1.310193
 20
28.916600
 30
0.0
 10
1.163949
 20
29.273700
 30
0.0
 10
1.029928
 20
29.629480
 30
0.0
 10
0.904772
 20
29.983460
 30
0.0
 10
0.785121
 20
30.335190
 30
0.0
 10
0.667613
 20
30.684180
 30
0.0
 10
0.548891
 20
31.029970
 30
0.0
 10
0.358395
 20
31.992100
 30
0.0
 10
0.197607
 20
32.966220
 30
0.0
 10
0.077885
 20
33.947750
 30
0.0
 10
0.010591
 20
34.932110
 30
0.0
 10
0.007084
 20
35.914720
 30
0.0
 10
0.078725
 20
36.891000
 30
0.0
 10
0.236874
 20
37.856380
 30
0.0
 10
0.492891
 20
38.806270
 30
0.0
 10
0.587477
 20
39.173940
 30
0.0
 10
0.681135
 20
39.535230
 30
0.0
 10
0.780089
 20
39.891300
 30
0.0
 10
0.890566
 20
40.243300
 30
0.0
 10
1.018789
 20
40.592400
 30
0.0
 10
1.170985
 20
40.939760
 30
0.0
 10
1.353377
 20
41.286550
 30
0.0
 10
1.572191
 20
41.633920
 30
0.0
 10
1.822099
 20
42.254120
 30
0.0
 10
2.117527
 20
42.851180
 30
0.0
 10
2.450114
 20
43.428030
 30
0.0
 10
2.811503
 20
43.987600
 30
0.0
 10
3.193334
 20
44.532820
 30
0.0
 10
3.587249
 20
45.066640
 30
0.0
 10
3.984887
 20
45.591970
 30
0.0
 10
4.377891
 20
46.111760
 30
0.0
 10
4.992291
 20
46.661780
 30
0.0
 10
5.609733
 20
47.213010
 30
0.0
 10
6.234100
 20
47.758980
 30
0.0
 10
6.869278
 20
48.293200
 30
0.0
 10
7.519152
 20
48.809210
 30
0.0
 10
8.187605
 20
49.300510
 30
0.0
 10
8.878523
 20
49.760640
 30
0.0
 10
9.595791
 20
50.183110
 30
0.0
 10
10.500605
 20
50.714960
 30
0.0
 10
11.423784
 20
51.203200
 30
0.0
 10
12.362458
 20
51.653920
 30
0.0
 10
13.313758
 20
52.073220
 30
0.0
 10
14.274812
 20
52.467180
 30
0.0
 10
15.242750
 20
52.841910
 30
0.0
 10
16.214703
 20
53.203500
 30
0.0
 10
17.187800
 20
53.558040
 30
0.0
 10
18.216002
 20
53.846270
 30
0.0
 10
19.255128
 20
54.087770
 30
0.0
 10
20.303596
 20
54.288540
 30
0.0
 10
21.359825
 20
54.454600
 30
0.0
 10
22.422232
 20
54.591950
 30
0.0
 10
23.489234
 20
54.706600
 30
0.0
 10
24.559251
 20
54.804500
 30
0.0
 10
25.630700
 20
54.891800
 30
0.0
 10
27.340627
 20
54.742740
 30
0.0
 10
29.040388
 20
54.507590
 30
0.0
 10
30.726528
 20
54.188290
 30
0.0
 10
32.395592
 20
53.786760
 30
0.0
 10
34.044127
 20
53.304940
 30
0.0
 10
35.668676
 20
52.744770
 30
0.0
 10
37.265785
 20
52.108170
 30
0.0
 10
38.832000
 20
51.397070
 30
0.0
 10
39.757149
 20
50.975990
 30
0.0
 10
40.659996
 20
50.511770
 30
0.0
 10
41.540981
 20
50.007220
 30
0.0
 10
42.400545
 20
49.465120
 30
0.0
 10
43.239128
 20
48.888280
 30
0.0
 10
44.057169
 20
48.279480
 30
0.0
 10
44.855110
 20
47.641530
 30
0.0
 10
45.633390
 20
46.977220
 30
0.0
 10
45.999536
 20
46.583450
 30
0.0
 10
46.363915
 20
46.185150
 30
0.0
 10
46.717823
 20
45.778010
 30
0.0
 10
47.052557
 20
45.357700
 30
0.0
 10
47.359416
 20
44.919930
 30
0.0
 10
47.629694
 20
44.460370
 30
0.0
 10
47.854690
 20
43.974720
 30
0.0
 10
48.025700
 20
43.458660
 30
0.0
 10
48.342344
 20
43.095910
 30
0.0
 10
48.586500
 20
42.696550
 30
0.0
 10
48.774781
 20
42.268230
 30
0.0
 10
48.923800
 20
41.818600
 30
0.0
 10
49.050169
 20
41.355290
 30
0.0
 10
49.170500
 20
40.885940
 30
0.0
 10
49.301406
 20
40.418210
 30
0.0
 10
49.459500
 20
39.959730
 30
0.0
 10
49.721275
 20
38.887250
 30
0.0
 10
49.897247
 20
37.799060
 30
0.0
 10
49.987117
 20
36.701800
 30
0.0
 10
49.990617
 20
35.602090
 30
0.0
 10
49.907367
 20
34.506580
 30
0.0
 10
49.737104
 20
33.421900
 30
0.0
 10
49.479527
 20
32.354690
 30
0.0
 10
49.134333
 20
31.311570
 30
0.0
 10
48.921020
 20
30.589210
 30
0.0
 10
48.654168
 20
29.886670
 30
0.0
 10
48.344086
 20
29.200730
 30
0.0
 10
48.001078
 20
28.528160
 30
0.0
 10
47.635452
 20
27.865760
 30
0.0
 10
47.257515
 20
27.210280
 30
0.0
 10
46.877573
 20
26.558520
 30
0.0
 10
46.505933
 20
25.907240
 30
0.0
 10
46.094997
 20
25.468910
 30
0.0
 10
45.689783
 20
25.026640
 30
0.0
 10
45.288111
 20
24.582020
 30
0.0
 10
44.887801
 20
24.136630
 30
0.0
 10
44.486669
 20
23.692060
 30
0.0
 10
44.082537
 20
23.249890
 30
0.0
 10
43.673222
 20
22.811720
 30
0.0
 10
43.256543
 20
22.379120
 30
0.0
 10
42.984207
 20
22.054600
 30
0.0
 10
42.731883
 20
21.729620
 30
0.0
 10
42.493950
 20
21.410810
 30
0.0
 10
42.264789
 20
21.104850
 30
0.0
 10
42.038779
 20
20.818390
 30
0.0
 10
41.810298
 20
20.558080
 30
0.0
 10
41.573726
 20
20.330570
 30
0.0
 10
41.323443
 20
20.142530
 30
0.0
 10
40.792490
 20
20.024190
 30
0.0
 10
40.495424
 20
19.795800
 30
0.0
 10
40.382999
 20
19.480040
 30
0.0
 10
40.405969
 20
19.099550
 30
0.0
 10
40.515085
 20
18.676990
 30
0.0
 10
40.661100
 20
18.235020
 30
0.0
 10
40.794769
 20
17.796300
 30
0.0
 10
40.866839
 20
17.383480
 30
0.0
 10
41.152676
 20
16.450770
 30
0.0
 10
41.445395
 20
15.517480
 30
0.0
 10
41.744817
 20
14.584370
 30
0.0
 10
42.050763
 20
13.652230
 30
0.0
 10
42.363055
 20
12.721840
 30
0.0
 10
42.681516
 20
11.793980
 30
0.0
 10
43.005967
 20
10.869430
 30
0.0
 10
43.336229
 20
9.948980
 30
0.0
 10
43.628721
 20
8.995700
 30
0.0
 10
43.883946
 20
8.032130
 30
0.0
 10
44.102513
 20
7.059600
 30
0.0
 10
44.285033
 20
6.079490
 30
0.0
 10
44.432114
 20
5.093160
 30
0.0
 10
44.544368
 20
4.101960
 30
0.0
 10
44.622398
 20
3.107250
 30
0.0
 10
44.666828
 20
2.110390
 30
0.0
 10
44.169750
 20
1.711650
 30
0.0
 10
43.589195
 20
1.487190
 30
0.0
 10
42.946583
 20
1.388890
 30
0.0
 10
42.263333
 20
1.368690
 30
0.0
 10
41.560864
 20
1.378690
 30
0.0
 10
40.860596
 20
1.370690
 30
0.0
 10
40.183947
 20
1.296090
 30
0.0
 10
39.552338
 20
1.107210
 30
0.0
 10
38.093378
 20
0.977640
 30
0.0
 10
36.631355
 20
0.896540
 30
0.0
 10
35.167146
 20
0.852940
 30
0.0
 10
33.701625
 20
0.835840
 30
0.0
 10
32.235669
 20
0.833840
 30
0.0
 10
30.770152
 20
0.836840
 30
0.0
 10
29.305950
 20
0.832840
 30
0.0
 10
27.843938
 20
0.810940
 30
0.0
 10
26.286087
 20
0.806940
 30
0.0
 10
24.728419
 20
0.782340
 30
0.0
 10
23.171060
 20
0.741540
 30
0.0
 10
21.614137
 20
0.689540
 30
0.0
 10
20.057775
 20
0.631240
 30
0.0
 10
18.502103
 20
0.571540
 30
0.0
 10
16.947245
 20
0.515440
 30
0.0
 10
15.393328
 20
0.467840
 30
0.0
 10
14.579997
 20
0.397340
 30
0.0
 10
13.765429
 20
0.341940
 30
0.0
 10
12.950349
 20
0.296440
 30
0.0
 10
12.135482
 20
0.255440
 30
0.0
 10
11.321551
 20
0.213540
 30
0.0
 10
10.509283
 20
0.165540
 30
0.0
 10
9.699401
 20
0.106140
 30
0.0
 10
8.892629
 20
0.029940
 30
0.0
 10
8.892679
 20
0.029940
 30
0.0
 10
8.892729
 20
0.029940
 30
0.0
 10
8.892779
 20
0.029940
 30
0.0
 10
8.892829
 20
0.029940
 30
0.0
 10
8.892879
 20
0.029940
 30
0.0
 10
8.892929
 20
0.029940
 30
0.0
 10
8.892979
 20
0.029940
 30
0.0
  0
LWPOLYLINE
  5
101
100
AcDbEntity
  8
Calque_1
 62
7
100
AcDbPolyline
 90
456
 70
1
 10
10.011350
 20
0.941750
 30
0.0
 10
10.620940
 20
1.051570
 30
0.0
 10
11.312989
 20
1.055570
 30
0.0
 10
12.038076
 20
1.017470
 30
0.0
 10
12.746780
 20
0.999770
 30
0.0
 10
13.389681
 20
1.065370
 30
0.0
 10
13.917358
 20
1.277190
 30
0.0
 10
14.280392
 20
1.698110
 30
0.0
 10
14.429360
 20
2.391020
 30
0.0
 10
14.411110
 20
2.995490
 30
0.0
 10
14.449590
 20
3.604300
 30
0.0
 10
14.526240
 20
4.214070
 30
0.0
 10
14.622480
 20
4.821440
 30
0.0
 10
14.719740
 20
5.423050
 30
0.0
 10
14.799450
 20
6.015530
 30
0.0
 10
14.843050
 20
6.595520
 30
0.0
 10
14.831960
 20
7.159650
 30
0.0
 10
14.955756
 20
7.700880
 30
0.0
 10
15.037356
 20
8.247490
 30
0.0
 10
15.088146
 20
8.797060
 30
0.0
 10
15.119506
 20
9.347200
 30
0.0
 10
15.142826
 20
9.895510
 30
0.0
 10
15.169486
 20
10.439570
 30
0.0
 10
15.210866
 20
10.976980
 30
0.0
 10
15.278356
 20
11.505350
 30
0.0
 10
15.253816
 20
12.091610
 30
0.0
 10
15.290966
 20
12.661690
 30
0.0
 10
15.402153
 20
13.191150
 30
0.0
 10
15.599732
 20
13.655580
 30
0.0
 10
15.896058
 20
14.030540
 30
0.0
 10
16.303485
 20
14.291620
 30
0.0
 10
16.834367
 20
14.414390
 30
0.0
 10
17.501057
 20
14.374390
 30
0.0
 10
17.879928
 20
14.163240
 30
0.0
 10
18.059274
 20
13.855920
 30
0.0
 10
18.087974
 20
13.475490
 30
0.0
 10
18.014894
 20
13.045040
 30
0.0
 10
17.888919
 20
12.587610
 30
0.0
 10
17.758921
 20
12.126280
 30
0.0
 10
17.673771
 20
11.684120
 30
0.0
 10
17.682371
 20
11.284200
 30
0.0
 10
17.489943
 20
10.251590
 30
0.0
 10
17.356502
 20
9.212690
 30
0.0
 10
17.264712
 20
8.169650
 30
0.0
 10
17.197242
 20
7.124600
 30
0.0
 10
17.136762
 20
6.079690
 30
0.0
 10
17.065932
 20
5.037040
 30
0.0
 10
16.967412
 20
3.998810
 30
0.0
 10
16.823875
 20
2.967120
 30
0.0
 10
16.659256
 20
2.396060
 30
0.0
 10
16.674746
 20
1.958460
 30
0.0
 10
16.842704
 20
1.640000
 30
0.0
 10
17.135488
 20
1.426380
 30
0.0
 10
17.525459
 20
1.303290
 30
0.0
 10
17.984974
 20
1.256390
 30
0.0
 10
18.486394
 20
1.271490
 30
0.0
 10
19.002076
 20
1.334190
 30
0.0
 10
19.621873
 20
1.391290
 30
0.0
 10
20.318399
 20
1.402390
 30
0.0
 10
21.055554
 20
1.390590
 30
0.0
 10
21.797239
 20
1.378790
 30
0.0
 10
22.507352
 20
1.390090
 30
0.0
 10
23.149796
 20
1.447590
 30
0.0
 10
23.688471
 20
1.574250
 30
0.0
 10
24.087276
 20
1.793110
 30
0.0
 10
23.930313
 20
2.262070
 30
0.0
 10
23.906753
 20
2.752990
 30
0.0
 10
23.974113
 20
3.261160
 30
0.0
 10
24.089906
 20
3.781880
 30
0.0
 10
24.211652
 20
4.310440
 30
0.0
 10
24.296872
 20
4.842140
 30
0.0
 10
24.303072
 20
5.372280
 30
0.0
 10
24.187781
 20
5.896150
 30
0.0
 10
24.266081
 20
6.647820
 30
0.0
 10
24.316421
 20
7.401010
 30
0.0
 10
24.344541
 20
8.155430
 30
0.0
 10
24.356201
 20
8.910780
 30
0.0
 10
24.357145
 20
9.666740
 30
0.0
 10
24.353145
 20
10.423020
 30
0.0
 10
24.349945
 20
11.179320
 30
0.0
 10
24.353245
 20
11.935330
 30
0.0
 10
24.411515
 20
12.390110
 30
0.0
 10
24.378405
 20
12.887690
 30
0.0
 10
24.301255
 20
13.402390
 30
0.0
 10
24.227405
 20
13.908570
 30
0.0
 10
24.204185
 20
14.380540
 30
0.0
 10
24.278925
 20
14.792640
 30
0.0
 10
24.498967
 20
15.119220
 30
0.0
 10
24.911645
 20
15.334600
 30
0.0
 10
25.193587
 20
15.437870
 30
0.0
 10
25.554815
 20
15.500770
 30
0.0
 10
25.957830
 20
15.519370
 30
0.0
 10
26.365133
 20
15.489770
 30
0.0
 10
26.739224
 20
15.407870
 30
0.0
 10
27.042606
 20
15.269830
 30
0.0
 10
27.237779
 20
15.071630
 30
0.0
 10
27.287249
 20
14.809320
 30
0.0
 10
27.383879
 20
14.386050
 30
0.0
 10
27.379679
 20
13.937500
 30
0.0
 10
27.304999
 20
13.469530
 30
0.0
 10
27.190197
 20
12.988030
 30
0.0
 10
27.065627
 20
12.498880
 30
0.0
 10
26.961644
 20
12.007940
 30
0.0
 10
26.908604
 20
11.521090
 30
0.0
 10
26.936854
 20
11.044220
 30
0.0
 10
26.961644
 20
10.465030
 30
0.0
 10
26.935914
 20
9.896380
 30
0.0
 10
26.878034
 20
9.334920
 30
0.0
 10
26.806374
 20
8.777290
 30
0.0
 10
26.739294
 20
8.220140
 30
0.0
 10
26.695174
 20
7.660110
 30
0.0
 10
26.692374
 20
7.093860
 30
0.0
 10
26.749254
 20
6.518020
 30
0.0
 10
26.709354
 20
6.020730
 30
0.0
 10
26.700954
 20
5.513470
 30
0.0
 10
26.716524
 20
4.998740
 30
0.0
 10
26.748444
 20
4.479060
 30
0.0
 10
26.789104
 20
3.956920
 30
0.0
 10
26.830914
 20
3.434820
 30
0.0
 10
26.866284
 20
2.915280
 30
0.0
 10
26.887614
 20
2.400800
 30
0.0
 10
26.932154
 20
1.822020
 30
0.0
 10
27.292236
 20
1.512550
 30
0.0
 10
27.890306
 20
1.406110
 30
0.0
 10
28.648804
 20
1.436410
 30
0.0
 10
29.490172
 20
1.537250
 30
0.0
 10
30.336852
 20
1.642330
 30
0.0
 10
31.111286
 20
1.685430
 30
0.0
 10
31.735916
 20
1.600230
 30
0.0
 10
31.963764
 20
1.777500
 30
0.0
 10
32.046494
 20
2.051210
 30
0.0
 10
32.027774
 20
2.400480
 30
0.0
 10
31.951274
 20
2.804400
 30
0.0
 10
31.860664
 20
3.242080
 30
0.0
 10
31.799604
 20
3.692630
 30
0.0
 10
31.811764
 20
4.135140
 30
0.0
 10
31.940814
 20
4.548730
 30
0.0
 10
31.904854
 20
5.014950
 30
0.0
 10
31.902754
 20
5.488700
 30
0.0
 10
31.920504
 20
5.968020
 30
0.0
 10
31.944194
 20
6.450950
 30
0.0
 10
31.959874
 20
6.935550
 30
0.0
 10
31.953574
 20
7.419840
 30
0.0
 10
31.911414
 20
7.901890
 30
0.0
 10
31.819414
 20
8.379730
 30
0.0
 10
31.769014
 20
9.038390
 30
0.0
 10
31.725064
 20
9.705090
 30
0.0
 10
31.684294
 20
10.375690
 30
0.0
 10
31.643434
 20
11.046040
 30
0.0
 10
31.599204
 20
11.712010
 30
0.0
 10
31.548334
 20
12.369440
 30
0.0
 10
31.487564
 20
13.014200
 30
0.0
 10
31.413614
 20
13.642130
 30
0.0
 10
31.385424
 20
14.020890
 30
0.0
 10
31.448694
 20
14.359310
 30
0.0
 10
31.592990
 20
14.652920
 30
0.0
 10
31.807877
 20
14.897280
 30
0.0
 10
32.082918
 20
15.087950
 30
0.0
 10
32.407677
 20
15.220480
 30
0.0
 10
32.771720
 20
15.290380
 30
0.0
 10
33.164609
 20
15.293380
 30
0.0
 10
33.517071
 20
15.057400
 30
0.0
 10
33.700407
 20
14.751530
 30
0.0
 10
33.756587
 20
14.391180
 30
0.0
 10
33.727587
 20
13.991760
 30
0.0
 10
33.655377
 20
13.568680
 30
0.0
 10
33.581927
 20
13.137340
 30
0.0
 10
33.549217
 20
12.713150
 30
0.0
 10
33.599207
 20
12.311520
 30
0.0
 10
33.565067
 20
11.394040
 30
0.0
 10
33.562867
 20
10.476990
 30
0.0
 10
33.589237
 20
9.560440
 30
0.0
 10
33.640837
 20
8.644470
 30
0.0
 10
33.714307
 20
7.729160
 30
0.0
 10
33.806297
 20
6.814570
 30
0.0
 10
33.913451
 20
5.900780
 30
0.0
 10
34.032417
 20
4.987860
 30
0.0
 10
33.950637
 20
4.549570
 30
0.0
 10
33.953237
 20
4.110780
 30
0.0
 10
34.022837
 20
3.674670
 30
0.0
 10
34.142089
 20
3.244450
 30
0.0
 10
34.293632
 20
2.823280
 30
0.0
 10
34.460109
 20
2.414370
 30
0.0
 10
34.624160
 20
2.020900
 30
0.0
 10
34.768426
 20
1.646050
 30
0.0
 10
35.529504
 20
1.668150
 30
0.0
 10
36.289195
 20
1.707950
 30
0.0
 10
37.047275
 20
1.765350
 30
0.0
 10
37.803517
 20
1.840250
 30
0.0
 10
38.557698
 20
1.932450
 30
0.0
 10
39.309591
 20
2.041860
 30
0.0
 10
40.058972
 20
2.168320
 30
0.0
 10
40.805616
 20
2.311700
 30
0.0
 10
41.546926
 20
2.254700
 30
0.0
 10
42.196473
 20
2.321900
 30
0.0
 10
42.743047
 20
2.509930
 30
0.0
 10
43.175436
 20
2.815380
 30
0.0
 10
43.482429
 20
3.234840
 30
0.0
 10
43.652814
 20
3.764940
 30
0.0
 10
43.675384
 20
4.402270
 30
0.0
 10
43.538920
 20
5.143450
 30
0.0
 10
43.526040
 20
5.676570
 30
0.0
 10
43.465920
 20
6.205130
 30
0.0
 10
43.369110
 20
6.729060
 30
0.0
 10
43.246149
 20
7.248320
 30
0.0
 10
43.107578
 20
7.762860
 30
0.0
 10
42.963940
 20
8.272620
 30
0.0
 10
42.825776
 20
8.777550
 30
0.0
 10
42.703629
 20
9.277600
 30
0.0
 10
42.511658
 20
9.904460
 30
0.0
 10
42.316468
 20
10.531720
 30
0.0
 10
42.118430
 20
11.159230
 30
0.0
 10
41.917917
 20
11.786850
 30
0.0
 10
41.715298
 20
12.414430
 30
0.0
 10
41.510946
 20
13.041810
 30
0.0
 10
41.305233
 20
13.668870
 30
0.0
 10
41.098529
 20
14.295430
 30
0.0
 10
40.917680
 20
14.794700
 30
0.0
 10
40.733763
 20
15.289140
 30
0.0
 10
40.551136
 20
15.781800
 30
0.0
 10
40.374154
 20
16.275700
 30
0.0
 10
40.207175
 20
16.773910
 30
0.0
 10
40.054557
 20
17.279450
 30
0.0
 10
39.920656
 20
17.795360
 30
0.0
 10
39.809829
 20
18.324700
 30
0.0
 10
39.762629
 20
18.696380
 30
0.0
 10
39.587674
 20
19.102520
 30
0.0
 10
39.350001
 20
19.519930
 30
0.0
 10
39.114649
 20
19.925410
 30
0.0
 10
38.946657
 20
20.295790
 30
0.0
 10
38.911067
 20
20.607880
 30
0.0
 10
39.072911
 20
20.838490
 30
0.0
 10
39.497231
 20
20.964440
 30
0.0
 10
39.854024
 20
20.721340
 30
0.0
 10
40.209762
 20
20.714340
 30
0.0
 10
40.565510
 20
20.887630
 30
0.0
 10
40.922331
 20
21.184970
 30
0.0
 10
41.281290
 20
21.550240
 30
0.0
 10
41.643450
 20
21.927340
 30
0.0
 10
42.009876
 20
22.260150
 30
0.0
 10
42.381631
 20
22.492590
 30
0.0
 10
42.955841
 20
23.199250
 30
0.0
 10
43.562756
 20
23.889980
 30
0.0
 10
44.186042
 20
24.574510
 30
0.0
 10
44.809364
 20
25.262570
 30
0.0
 10
45.416387
 20
25.963880
 30
0.0
 10
45.990777
 20
26.688160
 30
0.0
 10
46.516200
 20
27.445140
 30
0.0
 10
46.976321
 20
28.244540
 30
0.0
 10
47.297159
 20
28.806420
 30
0.0
 10
47.605529
 20
29.380130
 30
0.0
 10
47.898292
 20
29.965620
 30
0.0
 10
48.172308
 20
30.562800
 30
0.0
 10
48.424439
 20
31.171600
 30
0.0
 10
48.651544
 20
31.791950
 30
0.0
 10
48.850485
 20
32.423780
 30
0.0
 10
49.018121
 20
33.067020
 30
0.0
 10
49.238861
 20
33.785580
 30
0.0
 10
49.383026
 20
34.520780
 30
0.0
 10
49.460356
 20
35.267700
 30
0.0
 10
49.480586
 20
36.021440
 30
0.0
 10
49.453456
 20
36.777070
 30
0.0
 10
49.388716
 20
37.529690
 30
0.0
 10
49.296096
 20
38.274390
 30
0.0
 10
49.185335
 20
39.006250
 30
0.0
 10
48.866933
 20
40.164280
 30
0.0
 10
48.465419
 20
41.291300
 30
0.0
 10
47.983332
 20
42.383080
 30
0.0
 10
47.423210
 20
43.435370
 30
0.0
 10
46.787591
 20
44.443940
 30
0.0
 10
46.079013
 20
45.404560
 30
0.0
 10
45.300015
 20
46.312980
 30
0.0
 10
44.453135
 20
47.164960
 30
0.0
 10
43.915757
 20
47.649390
 30
0.0
 10
43.350309
 20
48.102110
 30
0.0
 10
42.761601
 20
48.527410
 30
0.0
 10
42.154440
 20
48.929570
 30
0.0
 10
41.533635
 20
49.312880
 30
0.0
 10
40.903993
 20
49.681630
 30
0.0
 10
40.270324
 20
50.040100
 30
0.0
 10
39.637435
 20
50.392580
 30
0.0
 10
38.766259
 20
50.750890
 30
0.0
 10
37.900665
 20
51.123400
 30
0.0
 10
37.036468
 20
51.499210
 30
0.0
 10
36.169481
 20
51.867390
 30
0.0
 10
35.295520
 20
52.217040
 30
0.0
 10
34.410400
 20
52.537240
 30
0.0
 10
33.509933
 20
52.817080
 30
0.0
 10
32.589935
 20
53.045640
 30
0.0
 10
31.383681
 20
53.372020
 30
0.0
 10
30.162216
 20
53.664550
 30
0.0
 10
28.928573
 20
53.910970
 30
0.0
 10
27.685785
 20
54.099050
 30
0.0
 10
26.436884
 20
54.216530
 30
0.0
 10
25.184904
 20
54.251130
 30
0.0
 10
23.932876
 20
54.190630
 30
0.0
 10
22.683835
 20
54.022840
 30
0.0
 10
22.135081
 20
53.980940
 30
0.0
 10
21.613955
 20
53.933340
 30
0.0
 10
21.112567
 20
53.877340
 30
0.0
 10
20.623022
 20
53.810040
 30
0.0
 10
20.137430
 20
53.728740
 30
0.0
 10
19.647896
 20
53.630640
 30
0.0
 10
19.146529
 20
53.513010
 30
0.0
 10
18.625435
 20
53.373030
 30
0.0
 10
17.966436
 20
53.186390
 30
0.0
 10
17.312315
 20
52.978480
 30
0.0
 10
16.662888
 20
52.754490
 30
0.0
 10
16.017971
 20
52.519590
 30
0.0
 10
15.377381
 20
52.278980
 30
0.0
 10
14.740932
 20
52.037850
 30
0.0
 10
14.108442
 20
51.801380
 30
0.0
 10
13.479725
 20
51.574760
 30
0.0
 10
13.197603
 20
51.434100
 30
0.0
 10
12.921012
 20
51.293910
 30
0.0
 10
12.646475
 20
51.151960
 30
0.0
 10
12.370516
 20
51.006020
 30
0.0
 10
12.089658
 20
50.853860
 30
0.0
 10
11.800425
 20
50.693260
 30
0.0
 10
11.499339
 20
50.521980
 30
0.0
 10
11.182925
 20
50.337810
 30
0.0
 10
10.756121
 20
50.120740
 30
0.0
 10
10.338327
 20
49.891140
 30
0.0
 10
9.927585
 20
49.650850
 30
0.0
 10
9.521938
 20
49.401740
 30
0.0
 10
9.119426
 20
49.145650
 30
0.0
 10
8.718093
 20
48.884430
 30
0.0
 10
8.315978
 20
48.619930
 30
0.0
 10
7.911125
 20
48.354010
 30
0.0
 10
7.619032
 20
48.157530
 30
0.0
 10
7.346774
 20
47.948410
 30
0.0
 10
7.087901
 20
47.727460
 30
0.0
 10
6.835963
 20
47.495500
 30
0.0
 10
6.584507
 20
47.253360
 30
0.0
 10
6.327083
 20
47.001860
 30
0.0
 10
6.057240
 20
46.741810
 30
0.0
 10
5.768525
 20
46.474040
 30
0.0
 10
5.589872
 20
46.256850
 30
0.0
 10
5.363721
 20
46.050190
 30
0.0
 10
5.115250
 20
45.854880
 30
0.0
 10
4.869638
 20
45.671710
 30
0.0
 10
4.652062
 20
45.501490
 30
0.0
 10
4.487699
 20
45.345040
 30
0.0
 10
4.401728
 20
45.203150
 30
0.0
 10
4.419326
 20
45.076640
 30
0.0
 10
4.232015
 20
44.812600
 30
0.0
 10
4.054256
 20
44.568490
 30
0.0
 10
3.882710
 20
44.337370
 30
0.0
 10
3.714038
 20
44.112300
 30
0.0
 10
3.544903
 20
43.886330
 30
0.0
 10
3.371965
 20
43.652520
 30
0.0
 10
3.191885
 20
43.403920
 30
0.0
 10
3.001326
 20
43.133590
 30
0.0
 10
2.913154
 20
42.959590
 30
0.0
 10
2.818231
 20
42.775030
 30
0.0
 10
2.717708
 20
42.582410
 30
0.0
 10
2.612739
 20
42.384230
 30
0.0
 10
2.504474
 20
42.182960
 30
0.0
 10
2.394065
 20
41.981130
 30
0.0
 10
2.282665
 20
41.781200
 30
0.0
 10
2.171426
 20
41.585690
 30
0.0
 10
2.039312
 20
41.407600
 30
0.0
 10
1.937131
 20
41.202510
 30
0.0
 10
1.854326
 20
40.978540
 30
0.0
 10
1.780339
 20
40.743820
 30
0.0
 10
1.704613
 20
40.506460
 30
0.0
 10
1.616591
 20
40.274580
 30
0.0
 10
1.505714
 20
40.056320
 30
0.0
 10
1.361427
 20
39.859780
 30
0.0
 10
1.280735
 20
39.610450
 30
0.0
 10
1.208322
 20
39.354890
 30
0.0
 10
1.142633
 20
39.092280
 30
0.0
 10
1.082114
 20
38.821770
 30
0.0
 10
1.025209
 20
38.542540
 30
0.0
 10
0.970362
 20
38.253760
 30
0.0
 10
0.916020
 20
37.954580
 30
0.0
 10
0.860627
 20
37.644170
 30
0.0
 10
0.754564
 20
37.259880
 30
0.0
 10
0.663916
 20
36.891730
 30
0.0
 10
0.589901
 20
36.541880
 30
0.0
 10
0.533739
 20
36.212470
 30
0.0
 10
0.496651
 20
35.905630
 30
0.0
 10
0.479856
 20
35.623490
 30
0.0
 10
0.484575
 20
35.368220
 30
0.0
 10
0.512027
 20
35.141930
 30
0.0
 10
0.517386
 20
34.783370
 30
0.0
 10
0.543763
 20
34.436120
 30
0.0
 10
0.585231
 20
34.095860
 30
0.0
 10
0.635865
 20
33.758280
 30
0.0
 10
0.689737
 20
33.419070
 30
0.0
 10
0.740922
 20
33.073920
 30
0.0
 10
0.783495
 20
32.718530
 30
0.0
 10
0.811527
 20
32.348570
 30
0.0
 10
0.890885
 20
31.619670
 30
0.0
 10
1.051699
 20
30.916270
 30
0.0
 10
1.277084
 20
30.233460
 30
0.0
 10
1.550152
 20
29.566320
 30
0.0
 10
1.854017
 20
28.909920
 30
0.0
 10
2.171793
 20
28.259350
 30
0.0
 10
2.486592
 20
27.609680
 30
0.0
 10
2.781527
 20
26.955990
 30
0.0
 10
3.125678
 20
26.502990
 30
0.0
 10
3.473190
 20
26.052030
 30
0.0
 10
3.828164
 20
25.606780
 30
0.0
 10
4.194702
 20
25.170950
 30
0.0
 10
4.576906
 20
24.748200
 30
0.0
 10
4.978877
 20
24.342230
 30
0.0
 10
5.404717
 20
23.956720
 30
0.0
 10
5.858527
 20
23.595360
 30
0.0
 10
6.101343
 20
23.228200
 30
0.0
 10
6.403616
 20
22.921320
 30
0.0
 10
6.752710
 20
22.664250
 30
0.0
 10
7.135990
 20
22.446560
 30
0.0
 10
7.540817
 20
22.257790
 30
0.0
 10
7.954557
 20
22.087500
 30
0.0
 10
8.364572
 20
21.925220
 30
0.0
 10
8.758227
 20
21.760510
 30
0.0
 10
9.135339
 20
21.689510
 30
0.0
 10
9.560014
 20
21.618810
 30
0.0
 10
9.993203
 20
21.531910
 30
0.0
 10
10.395852
 20
21.412390
 30
0.0
 10
10.728911
 20
21.243840
 30
0.0
 10
10.953327
 20
21.009840
 30
0.0
 10
11.030047
 20
20.693940
 30
0.0
 10
10.920024
 20
20.279740
 30
0.0
 10
10.899674
 20
19.405150
 30
0.0
 10
10.840054
 20
18.534010
 30
0.0
 10
10.743314
 20
17.667030
 30
0.0
 10
10.611585
 20
16.804900
 30
0.0
 10
10.447009
 20
15.948300
 30
0.0
 10
10.251730
 20
15.097940
 30
0.0
 10
10.027887
 20
14.254500
 30
0.0
 10
9.777622
 20
13.418680
 30
0.0
 10
9.625368
 20
12.901280
 30
0.0
 10
9.476503
 20
12.388890
 30
0.0
 10
9.333310
 20
11.879160
 30
0.0
 10
9.198072
 20
11.369690
 30
0.0
 10
9.073071
 20
10.858130
 30
0.0
 10
8.960591
 20
10.342100
 30
0.0
 10
8.862914
 20
9.819220
 30
0.0
 10
8.782323
 20
9.287130
 30
0.0
 10
8.643661
 20
8.337670
 30
0.0
 10
8.505318
 20
7.384500
 30
0.0
 10
8.374937
 20
6.428460
 30
0.0
 10
8.260160
 20
5.470420
 30
0.0
 10
8.168628
 20
4.511200
 30
0.0
 10
8.107983
 20
3.551660
 30
0.0
 10
8.085867
 20
2.592640
 30
0.0
 10
8.109922
 20
1.634990
 30
0.0
 10
8.292965
 20
1.457190
 30
0.0
 10
8.500280
 20
1.303880
 30
0.0
 10
8.727539
 20
1.175810
 30
0.0
 10
8.970410
 20
1.073740
 30
0.0
 10
9.224564
 20
0.998440
 30
0.0
 10
9.485671
 20
0.950640
 30
0.0
 10
9.749400
 20
0.931140
 30
0.0
  0
LWPOLYLINE
  5
102
100
AcDbEntity
  8
Calque_1
 62
7
100
AcDbPolyline
 90
56
 70
1
 10
23.513660
 20
23.633880
 30
0.0
 10
23.002166
 20
23.690680
 30
0.0
 10
22.449063
 20
23.846120
 30
0.0
 10
21.904084
 20
24.090120
 30
0.0
 10
21.416960
 20
24.412660
 30
0.0
 10
21.037424
 20
24.803650
 30
0.0
 10
20.815207
 20
25.253060
 30
0.0
 10
20.800047
 20
25.750820
 30
0.0
 10
21.041665
 20
26.286880
 30
0.0
 10
21.299985
 20
26.792430
 30
0.0
 10
21.522198
 20
27.315990
 30
0.0
 10
21.721360
 20
27.851720
 30
0.0
 10
21.910527
 20
28.393770
 30
0.0
 10
22.102756
 20
28.936310
 30
0.0
 10
22.311101
 20
29.473480
 30
0.0
 10
22.548619
 20
29.999460
 30
0.0
 10
22.828365
 20
30.508390
 30
0.0
 10
22.858335
 20
30.953530
 30
0.0
 10
22.991895
 20
31.356930
 30
0.0
 10
23.213528
 20
31.711710
 30
0.0
 10
23.507717
 20
32.010980
 30
0.0
 10
23.858943
 20
32.247860
 30
0.0
 10
24.251689
 20
32.415480
 30
0.0
 10
24.670436
 20
32.506980
 30
0.0
 10
25.099667
 20
32.514980
 30
0.0
 10
25.639350
 20
32.289830
 30
0.0
 10
26.086872
 20
31.953680
 30
0.0
 10
26.458837
 20
31.530130
 30
0.0
 10
26.771853
 20
31.042740
 30
0.0
 10
27.042527
 20
30.515100
 30
0.0
 10
27.287464
 20
29.970780
 30
0.0
 10
27.523272
 20
29.433380
 30
0.0
 10
27.766557
 20
28.926470
 30
0.0
 10
27.868346
 20
28.644060
 30
0.0
 10
28.007699
 20
28.348060
 30
0.0
 10
28.173982
 20
28.039020
 30
0.0
 10
28.356562
 20
27.717530
 30
0.0
 10
28.544804
 20
27.384150
 30
0.0
 10
28.728075
 20
27.039460
 30
0.0
 10
28.895740
 20
26.684020
 30
0.0
 10
29.037167
 20
26.318410
 30
0.0
 10
29.302836
 20
25.781380
 30
0.0
 10
29.289506
 20
25.323560
 30
0.0
 10
29.054505
 20
24.942730
 30
0.0
 10
28.655151
 20
24.636720
 30
0.0
 10
28.148768
 20
24.403300
 30
0.0
 10
27.592678
 20
24.240280
 30
0.0
 10
27.044202
 20
24.145480
 30
0.0
 10
26.560664
 20
24.116680
 30
0.0
 10
26.190063
 20
24.010100
 30
0.0
 10
25.815372
 20
23.908800
 30
0.0
 10
25.437167
 20
23.816700
 30
0.0
 10
25.056026
 20
23.737900
 30
0.0
 10
24.672528
 20
23.676200
 30
0.0
 10
24.287250
 20
23.635600
 30
0.0
 10
23.900769
 20
23.620100
 30
0.0
  0
LWPOLYLINE
  5
103
100
AcDbEntity
  8
Calque_1
 62
7
100
AcDbPolyline
 90
64
 70
1
 10
13.724260
 20
32.229630
 30
0.0
 10
13.246434
 20
32.257930
 30
0.0
 10
12.789791
 20
32.341230
 30
0.0
 10
12.354610
 20
32.476890
 30
0.0
 10
11.941168
 20
32.662200
 30
0.0
 10
11.549742
 20
32.894460
 30
0.0
 10
11.180613
 20
33.170990
 30
0.0
 10
10.834056
 20
33.489090
 30
0.0
 10
10.510350
 20
33.846080
 30
0.0
 10
10.322594
 20
34.156000
 30
0.0
 10
10.166506
 20
34.499350
 30
0.0
 10
10.041422
 20
34.868480
 30
0.0
 10
9.946675
 20
35.255750
 30
0.0
 10
9.881600
 20
35.653510
 30
0.0
 10
9.845531
 20
36.054100
 30
0.0
 10
9.837801
 20
36.449890
 30
0.0
 10
9.857748
 20
36.833220
 30
0.0
 10
10.066120
 20
37.578240
 30
0.0
 10
10.389241
 20
38.271980
 30
0.0
 10
10.813431
 20
38.906410
 30
0.0
 10
11.325012
 20
39.473480
 30
0.0
 10
11.910304
 20
39.965160
 30
0.0
 10
12.555629
 20
40.373400
 30
0.0
 10
13.247306
 20
40.690160
 30
0.0
 10
13.971658
 20
40.907410
 30
0.0
 10
14.429528
 20
40.983310
 30
0.0
 10
14.900433
 20
41.020510
 30
0.0
 10
15.379523
 20
41.016510
 30
0.0
 10
15.861942
 20
40.969510
 30
0.0
 10
16.342838
 20
40.876910
 30
0.0
 10
16.817358
 20
40.736450
 30
0.0
 10
17.280649
 20
40.545830
 30
0.0
 10
17.727858
 20
40.302760
 30
0.0
 10
18.071155
 20
40.049050
 30
0.0
 10
18.357660
 20
39.748160
 30
0.0
 10
18.596841
 20
39.409940
 30
0.0
 10
18.798170
 20
39.044220
 30
0.0
 10
18.971117
 20
38.660840
 30
0.0
 10
19.125150
 20
38.269640
 30
0.0
 10
19.269741
 20
37.880460
 30
0.0
 10
19.414358
 20
37.503140
 30
0.0
 10
19.649141
 20
37.049720
 30
0.0
 10
19.726981
 20
36.578300
 30
0.0
 10
19.672121
 20
36.100280
 30
0.0
 10
19.508801
 20
35.627060
 30
0.0
 10
19.261271
 20
35.170030
 30
0.0
 10
18.953775
 20
34.740590
 30
0.0
 10
18.610558
 20
34.350130
 30
0.0
 10
18.255864
 20
34.010050
 30
0.0
 10
17.975508
 20
33.846450
 30
0.0
 10
17.713136
 20
33.701690
 30
0.0
 10
17.465253
 20
33.572870
 30
0.0
 10
17.228364
 20
33.457070
 30
0.0
 10
16.998975
 20
33.351380
 30
0.0
 10
16.773592
 20
33.252880
 30
0.0
 10
16.548720
 20
33.158680
 30
0.0
 10
16.320864
 20
33.065880
 30
0.0
 10
16.108787
 20
32.892370
 30
0.0
 10
15.836564
 20
32.731420
 30
0.0
 10
15.518198
 20
32.586610
 30
0.0
 10
15.167689
 20
32.461500
 30
0.0
 10
14.799040
 20
32.359660
 30
0.0
 10
14.426252
 20
32.284660
 30
0.0
 10
14.063326
 20
32.240060
 30
0.0
  0
LWPOLYLINE
  5
104
100
AcDbEntity
  8
Calque_1
 62
7
100
AcDbPolyline
 90
56
 70
1
 10
34.586660
 20
33.613010
 30
0.0
 10
34.049063
 20
33.768830
 30
0.0
 10
33.526298
 20
33.981850
 30
0.0
 10
33.025966
 20
34.248570
 30
0.0
 10
32.555669
 20
34.565510
 30
0.0
 10
32.123008
 20
34.929180
 30
0.0
 10
31.735585
 20
35.336080
 30
0.0
 10
31.401002
 20
35.782730
 30
0.0
 10
31.126860
 20
36.265640
 30
0.0
 10
31.072250
 20
36.784270
 30
0.0
 10
31.064650
 20
37.305220
 30
0.0
 10
31.106660
 20
37.822470
 30
0.0
 10
31.200970
 20
38.330030
 30
0.0
 10
31.350230
 20
38.821870
 30
0.0
 10
31.557096
 20
39.291980
 30
0.0
 10
31.824227
 20
39.734360
 30
0.0
 10
32.154278
 20
40.142980
 30
0.0
 10
32.394997
 20
40.490250
 30
0.0
 10
32.676945
 20
40.787870
 30
0.0
 10
32.989283
 20
41.048590
 30
0.0
 10
33.321173
 20
41.285160
 30
0.0
 10
33.661776
 20
41.510330
 30
0.0
 10
34.000254
 20
41.736860
 30
0.0
 10
34.325767
 20
41.977490
 30
0.0
 10
34.627478
 20
42.244980
 30
0.0
 10
35.034540
 20
42.086050
 30
0.0
 10
35.475516
 20
42.038450
 30
0.0
 10
35.933679
 20
42.054050
 30
0.0
 10
36.392298
 20
42.084650
 30
0.0
 10
36.834646
 20
42.082650
 30
0.0
 10
37.243995
 20
41.998850
 30
0.0
 10
37.603615
 20
41.785650
 30
0.0
 10
37.896778
 20
41.394870
 30
0.0
 10
38.391525
 20
40.990420
 30
0.0
 10
38.802631
 20
40.512770
 30
0.0
 10
39.132414
 20
39.975670
 30
0.0
 10
39.383195
 20
39.392820
 30
0.0
 10
39.557294
 20
38.777950
 30
0.0
 10
39.657034
 20
38.144790
 30
0.0
 10
39.684724
 20
37.507060
 30
0.0
 10
39.642694
 20
36.878480
 30
0.0
 10
39.446486
 20
36.429190
 30
0.0
 10
39.231141
 20
35.986570
 30
0.0
 10
38.989354
 20
35.561260
 30
0.0
 10
38.713819
 20
35.163900
 30
0.0
 10
38.397231
 20
34.805130
 30
0.0
 10
38.032285
 20
34.495600
 30
0.0
 10
37.611674
 20
34.245940
 30
0.0
 10
37.128094
 20
34.066800
 30
0.0
 10
36.825857
 20
33.946830
 30
0.0
 10
36.517025
 20
33.843780
 30
0.0
 10
36.202690
 20
33.758180
 30
0.0
 10
35.883944
 20
33.690680
 30
0.0
 10
35.561879
 20
33.641880
 30
0.0
 10
35.237588
 20
33.612380
 30
0.0
 10
34.912162
 20
33.602380
 30
0.0
  0
LWPOLYLINE
  5
105
100
AcDbEntity
  8
Calque_1
 62
7
100
AcDbPolyline
 90
8
 70
1
 10
17.652960
 20
11.711190
 30
0.0
 10
17.632370
 20
11.734790
 30
0.0
 10
17.616680
 20
11.741790
 30
0.0
 10
17.606380
 20
11.736790
 30
0.0
 10
17.601980
 20
11.725590
 30
0.0
 10
17.603980
 20
11.712490
 30
0.0
 10
17.612780
 20
11.702390
 30
0.0
 10
17.628960
 20
11.700390
 30
0.0
  0
LWPOLYLINE
  5
106
100
AcDbEntity
  8
Calque_1
 62
7
100
AcDbPolyline
 90
8
 70
1
 10
2.703050
 20
43.155600
 30
0.0
 10
2.775274
 20
43.176500
 30
0.0
 10
2.817589
 20
43.186900
 30
0.0
 10
2.834631
 20
43.188900
 30
0.0
 10
2.831041
 20
43.184900
 30
0.0
 10
2.811449
 20
43.176900
 30
0.0
 10
2.780496
 20
43.167900
 30
0.0
 10
2.742818
 20
43.159900
 30
0.0
  0
ENDSEC
  0
SECTION
  2
OBJECTS
  0
DICTIONARY
  5
C
330
0
100
AcDbDictionary
  3
ACAD_GROUP
350
D
  3
ACAD_MLINESTYLE
350
17
  0
DICTIONARY
  5
D
330
C
100
AcDbDictionary
  0
DICTIONARY
  5
1A
330
C
100
AcDbDictionary
  0
DICTIONARY
  5
17
330
C
100
AcDbDictionary
  3
STANDARD
350
18
  0
DICTIONARY
  5
19
330
C
100
AcDbDictionary
  0
ENDSEC
  0
EOF
