  0
SECTION
  2
HEADER
  9
$ACADVER
  1
AC1014
  9
$HANDSEED
  5
FFFF
  9
$MEASUREMENT
 70
     1
  0
ENDSEC
  0
SECTION
  2
TABLES
  0
TABLE
  2
VPORT
  5
8
330
0
100
AcDbSymbolTable
 70
     4
  0
VPORT
  5
2E
330
8
100
AcDbSymbolTableRecord
100
AcDbViewportTableRecord
  2
*ACTIVE
 70
     0
 10
0.0
 20
0.0
 11
1.0
 21
1.0
 12
210.0
 22
148.5
 13
0.0
 23
0.0
 14
10.0
 24
10.0
 15
10.0
 25
10.0
 16
0.0
 26
0.0
 36
1.0
 17
0.0
 27
0.0
 37
0.0
 40
341.0
 41
1.24
 42
50.0
 43
0.0
 44
0.0
 50
0.0
 51
0.0
 71
     0
 72
   100
 73
     1
 74
     3
 75
     0
 76
     0
 77
     0
 78
     0
  0
ENDTAB
  0
TABLE
  2
LTYPE
  5
5
330
0
100
AcDbSymbolTable
 70
     1
  0
LTYPE
  5
14
330
5
100
AcDbSymbolTableRecord
100
AcDbLinetypeTableRecord
  2
BYBLOCK
 70
     0
  3

 72
    65
 73
     0
 40
0.0
  0
LTYPE
  5
15
330
5
100
AcDbSymbolTableRecord
100
AcDbLinetypeTableRecord
  2
BYLAYER
 70
     0
  3

 72
    65
 73
     0
 40
0.0
  0
LTYPE
  5
16
330
5
100
AcDbSymbolTableRecord
100
AcDbLinetypeTableRecord
  2
CONTINUOUS
 70
     0
  3
Solid line
 72
    65
 73
     0
 40
0.0
  0
ENDTAB
  0
TABLE
  2
LAYER
  5
2
100
AcDbSymbolTable
 70
2
  0
LAYER
  5
50
100
AcDbSymbolTableRecord
100
AcDbLayerTableRecord
  2
0
 70
0
  6
CONTINUOUS
  0
LAYER
  5
51
100
AcDbSymbolTableRecord
100
AcDbLayerTableRecord
  2
Calque_1
 70
0
  6
CONTINUOUS
  0
ENDTAB
  0
TABLE
  2
STYLE
  5
3
330
0
100
AcDbSymbolTable
 70
     1
  0
STYLE
  5
11
330
3
100
AcDbSymbolTableRecord
100
AcDbTextStyleTableRecord
  2
STANDARD
 70
     0
 40
0.0
 41
1.0
 50
0.0
 71
     0
 42
2.5
  3
txt
  4

  0
ENDTAB
  0
TABLE
  2
VIEW
  5
6
330
0
100
AcDbSymbolTable
 70
     0
  0
ENDTAB
  0
TABLE
  2
UCS
  5
7
330
0
100
AcDbSymbolTable
 70
     0
  0
ENDTAB
  0
TABLE
  2
APPID
  5
9
330
0
100
AcDbSymbolTable
 70
     2
  0
APPID
  5
12
330
9
100
AcDbSymbolTableRecord
100
AcDbRegAppTableRecord
  2
ACAD
 70
     0
  0
ENDTAB
  0
TABLE
  2
DIMSTYLE
  5
A
330
0
100
AcDbSymbolTable
 70
     1
  0
DIMSTYLE
105
27
330
A
100
AcDbSymbolTableRecord
100
AcDbDimStyleTableRecord
  2
ISO-25
 70
     0
  3

  4

  5

  6

  7

 40
1.0
 41
2.5
 42
0.625
 43
3.75
 44
1.25
 45
0.0
 46
0.0
 47
0.0
 48
0.0
140
2.5
141
2.5
142
0.0
143
0.03937007874016
144
1.0
145
0.0
146
1.0
147
0.625
 71
     0
 72
     0
 73
     0
 74
     0
 75
     0
 76
     0
 77
     1
 78
     8
170
     0
171
     3
172
     1
173
     0
174
     0
175
     0
176
     0
177
     0
178
     0
270
     2
271
     2
272
     2
273
     2
274
     3
340
11
275
     0
280
     0
281
     0
282
     0
283
     0
284
     8
285
     0
286
     0
287
     3
288
     0
  0
ENDTAB
  0
TABLE
  2
BLOCK_RECORD
  5
1
330
0
100
AcDbSymbolTable
 70
     1
  0
BLOCK_RECORD
  5
1F
330
1
100
AcDbSymbolTableRecord
100
AcDbBlockTableRecord
  2
*MODEL_SPACE
  0
BLOCK_RECORD
  5
1B
330
1
100
AcDbSymbolTableRecord
100
AcDbBlockTableRecord
  2
*PAPER_SPACE
  0
ENDTAB
  0
ENDSEC
  0
SECTION
  2
BLOCKS
  0
BLOCK
  5
20
330
1F
100
AcDbEntity
  8
0
100
AcDbBlockBegin
  2
*MODEL_SPACE
 70
     0
 10
0.0
 20
0.0
 30
0.0
  3
*MODEL_SPACE
  1

  0
ENDBLK
  5
21
330
1F
100
AcDbEntity
  8
0
100
AcDbBlockEnd
  0
BLOCK
  5
1C
330
1B
100
AcDbEntity
 67
     1
  8
0
100
AcDbBlockBegin
  2
*PAPER_SPACE
  1

  0
ENDBLK
  5
1D
330
1B
100
AcDbEntity
 67
     1
  8
0
100
AcDbBlockEnd
  0
ENDSEC
  0
SECTION
  2
ENTITIES
  0
LWPOLYLINE
  5
100
100
AcDbEntity
  8
Calque_1
 62
7
100
AcDbPolyline
 90
544
 70
1
 10
25.000469
 20
60.460740
 30
0.0
 10
24.672473
 20
60.444040
 30
0.0
 10
24.353610
 20
60.394940
 30
0.0
 10
24.045541
 20
60.315140
 30
0.0
 10
23.749925
 20
60.206270
 30
0.0
 10
23.468421
 20
60.070020
 30
0.0
 10
23.202689
 20
59.908040
 30
0.0
 10
22.954388
 20
59.722000
 30
0.0
 10
22.725179
 20
59.513540
 30
0.0
 10
22.516720
 20
59.284330
 30
0.0
 10
22.330672
 20
59.036030
 30
0.0
 10
22.168693
 20
58.770290
 30
0.0
 10
22.032443
 20
58.488790
 30
0.0
 10
21.923583
 20
58.193170
 30
0.0
 10
21.843773
 20
57.885110
 30
0.0
 10
21.794673
 20
57.566240
 30
0.0
 10
21.777933
 20
57.238250
 30
0.0
 10
21.783933
 20
57.042650
 30
0.0
 10
21.801573
 20
56.850090
 30
0.0
 10
21.830543
 20
56.660910
 30
0.0
 10
21.870483
 20
56.475450
 30
0.0
 10
21.921043
 20
56.294040
 30
0.0
 10
21.981873
 20
56.117020
 30
0.0
 10
22.052613
 20
55.944730
 30
0.0
 10
22.132913
 20
55.777510
 30
0.0
 10
22.222423
 20
55.615700
 30
0.0
 10
22.320783
 20
55.459620
 30
0.0
 10
22.427648
 20
55.309630
 30
0.0
 10
22.542661
 20
55.166050
 30
0.0
 10
22.665468
 20
55.029230
 30
0.0
 10
22.795715
 20
54.899510
 30
0.0
 10
22.933051
 20
54.777210
 30
0.0
 10
23.077120
 20
54.662690
 30
0.0
 10
22.702824
 20
54.622090
 30
0.0
 10
22.329035
 20
54.578990
 30
0.0
 10
21.955822
 20
54.533090
 30
0.0
 10
21.583254
 20
54.484090
 30
0.0
 10
21.211401
 20
54.431690
 30
0.0
 10
20.840332
 20
54.375690
 30
0.0
 10
20.470117
 20
54.315790
 30
0.0
 10
20.100825
 20
54.251790
 30
0.0
 10
19.732526
 20
54.183390
 30
0.0
 10
19.365289
 20
54.110290
 30
0.0
 10
18.999184
 20
54.032190
 30
0.0
 10
18.634281
 20
53.948890
 30
0.0
 10
18.270648
 20
53.860090
 30
0.0
 10
17.908355
 20
53.765590
 30
0.0
 10
17.547473
 20
53.665080
 30
0.0
 10
17.188069
 20
53.558280
 30
0.0
 10
16.701554
 20
53.381510
 30
0.0
 10
16.214959
 20
53.203740
 30
0.0
 10
15.728646
 20
53.024200
 30
0.0
 10
15.242974
 20
52.842140
 30
0.0
 10
14.758301
 20
52.656800
 30
0.0
 10
14.274989
 20
52.467400
 30
0.0
 10
13.793395
 20
52.273200
 30
0.0
 10
13.313881
 20
52.073430
 30
0.0
 10
12.836806
 20
51.867320
 30
0.0
 10
12.362529
 20
51.654120
 30
0.0
 10
11.891409
 20
51.433060
 30
0.0
 10
11.423807
 20
51.203390
 30
0.0
 10
10.960083
 20
50.964340
 30
0.0
 10
10.500595
 20
50.715140
 30
0.0
 10
10.045703
 20
50.455050
 30
0.0
 10
9.595768
 20
50.183290
 30
0.0
 10
9.233599
 20
49.977160
 30
0.0
 10
8.878505
 20
49.760810
 30
0.0
 10
8.530002
 20
49.535030
 30
0.0
 10
8.187602
 20
49.300650
 30
0.0
 10
7.850820
 20
49.058480
 30
0.0
 10
7.519169
 20
48.809310
 30
0.0
 10
7.192165
 20
48.553970
 30
0.0
 10
6.869320
 20
48.293260
 30
0.0
 10
6.550149
 20
48.028000
 30
0.0
 10
6.234166
 20
47.759000
 30
0.0
 10
5.920885
 20
47.487060
 30
0.0
 10
5.609819
 20
47.212990
 30
0.0
 10
5.300484
 20
46.937610
 30
0.0
 10
4.992392
 20
46.661730
 30
0.0
 10
4.685059
 20
46.386160
 30
0.0
 10
4.377997
 20
46.111700
 30
0.0
 10
4.182600
 20
45.852320
 30
0.0
 10
3.985002
 20
45.591910
 30
0.0
 10
3.786249
 20
45.330130
 30
0.0
 10
3.587385
 20
45.066590
 30
0.0
 10
3.389454
 20
44.800930
 30
0.0
 10
3.193501
 20
44.532790
 30
0.0
 10
3.000570
 20
44.261790
 30
0.0
 10
2.811705
 20
43.987580
 30
0.0
 10
2.627951
 20
43.709780
 30
0.0
 10
2.450351
 20
43.428020
 30
0.0
 10
2.279951
 20
43.141950
 30
0.0
 10
2.117794
 20
42.851190
 30
0.0
 10
1.964925
 20
42.555370
 30
0.0
 10
1.822388
 20
42.254140
 30
0.0
 10
1.691227
 20
41.947120
 30
0.0
 10
1.572487
 20
41.633940
 30
0.0
 10
1.458136
 20
41.460110
 30
0.0
 10
1.353664
 20
41.286590
 30
0.0
 10
1.258293
 20
41.113220
 30
0.0
 10
1.171246
 20
40.939850
 30
0.0
 10
1.091746
 20
40.766350
 30
0.0
 10
1.019015
 20
40.592560
 30
0.0
 10
0.952276
 20
40.418340
 30
0.0
 10
0.890751
 20
40.243530
 30
0.0
 10
0.833663
 20
40.068010
 30
0.0
 10
0.780234
 20
39.891610
 30
0.0
 10
0.729687
 20
39.714200
 30
0.0
 10
0.681244
 20
39.535620
 30
0.0
 10
0.634128
 20
39.355720
 30
0.0
 10
0.587562
 20
39.174380
 30
0.0
 10
0.540767
 20
38.991420
 30
0.0
 10
0.492966
 20
38.806720
 30
0.0
 10
0.352012
 20
38.333990
 30
0.0
 10
0.236941
 20
37.856800
 30
0.0
 10
0.146334
 20
37.375740
 30
0.0
 10
0.078771
 20
36.891370
 30
0.0
 10
0.032832
 20
36.404270
 30
0.0
 10
0.007099
 20
35.915010
 30
0.0
 10
0.000151
 20
35.424170
 30
0.0
 10
0.010570
 20
34.932320
 30
0.0
 10
0.036935
 20
34.440030
 30
0.0
 10
0.077828
 20
33.947870
 30
0.0
 10
0.131829
 20
33.456430
 30
0.0
 10
0.197517
 20
32.966270
 30
0.0
 10
0.273475
 20
32.477970
 30
0.0
 10
0.358282
 20
31.992090
 30
0.0
 10
0.450519
 20
31.509230
 30
0.0
 10
0.548766
 20
31.029940
 30
0.0
 10
0.608488
 20
30.857480
 30
0.0
 10
0.667485
 20
30.684160
 30
0.0
 10
0.726176
 20
30.510050
 30
0.0
 10
0.784982
 20
30.335210
 30
0.0
 10
0.844323
 20
30.159690
 30
0.0
 10
0.904619
 20
29.983540
 30
0.0
 10
0.966291
 20
29.806840
 30
0.0
 10
1.029759
 20
29.629620
 30
0.0
 10
1.095443
 20
29.451960
 30
0.0
 10
1.163763
 20
29.273910
 30
0.0
 10
1.235139
 20
29.095530
 30
0.0
 10
1.309992
 20
28.916870
 30
0.0
 10
1.388742
 20
28.738000
 30
0.0
 10
1.471809
 20
28.558970
 30
0.0
 10
1.559614
 20
28.379830
 30
0.0
 10
1.652576
 20
28.200650
 30
0.0
 10
1.797599
 20
27.869380
 30
0.0
 10
1.954345
 20
27.545140
 30
0.0
 10
2.122303
 20
27.227760
 30
0.0
 10
2.300962
 20
26.917110
 30
0.0
 10
2.489812
 20
26.613020
 30
0.0
 10
2.688342
 20
26.315360
 30
0.0
 10
2.896041
 20
26.023970
 30
0.0
 10
3.112400
 20
25.738690
 30
0.0
 10
3.336906
 20
25.459390
 30
0.0
 10
3.569050
 20
25.185910
 30
0.0
 10
3.808320
 20
24.918090
 30
0.0
 10
4.054207
 20
24.655800
 30
0.0
 10
4.306200
 20
24.398870
 30
0.0
 10
4.563788
 20
24.147170
 30
0.0
 10
4.826460
 20
23.900530
 30
0.0
 10
5.093706
 20
23.658810
 30
0.0
 10
5.030042
 20
23.493490
 30
0.0
 10
5.016154
 20
23.330740
 30
0.0
 10
5.047247
 20
23.170460
 30
0.0
 10
5.118528
 20
23.012560
 30
0.0
 10
5.225201
 20
22.856930
 30
0.0
 10
5.362473
 20
22.703480
 30
0.0
 10
5.525548
 20
22.552110
 30
0.0
 10
5.709633
 20
22.402730
 30
0.0
 10
5.909934
 20
22.255220
 30
0.0
 10
6.121655
 20
22.109510
 30
0.0
 10
6.340003
 20
21.965480
 30
0.0
 10
6.560183
 20
21.823040
 30
0.0
 10
6.777400
 20
21.682090
 30
0.0
 10
6.986861
 20
21.542540
 30
0.0
 10
7.183771
 20
21.404280
 30
0.0
 10
7.363336
 20
21.267220
 30
0.0
 10
7.537871
 20
21.208720
 30
0.0
 10
7.714956
 20
21.152820
 30
0.0
 10
7.893327
 20
21.098020
 30
0.0
 10
8.071719
 20
21.042620
 30
0.0
 10
8.248865
 20
20.985220
 30
0.0
 10
8.423500
 20
20.924220
 30
0.0
 10
8.594359
 20
20.858020
 30
0.0
 10
8.760176
 20
20.785120
 30
0.0
 10
8.919686
 20
20.704020
 30
0.0
 10
9.071624
 20
20.613120
 30
0.0
 10
9.214724
 20
20.510830
 30
0.0
 10
9.347721
 20
20.395630
 30
0.0
 10
9.469348
 20
20.265980
 30
0.0
 10
9.578342
 20
20.120310
 30
0.0
 10
9.673436
 20
19.957090
 30
0.0
 10
9.753365
 20
19.774750
 30
0.0
 10
9.864756
 20
19.421050
 30
0.0
 10
9.947260
 20
19.062140
 30
0.0
 10
10.002895
 20
18.698820
 30
0.0
 10
10.033685
 20
18.331880
 30
0.0
 10
10.041685
 20
17.962090
 30
0.0
 10
10.028825
 20
17.590250
 30
0.0
 10
9.997168
 20
17.217140
 30
0.0
 10
9.948734
 20
16.843560
 30
0.0
 10
9.885540
 20
16.470290
 30
0.0
 10
9.809605
 20
16.098110
 30
0.0
 10
9.722947
 20
15.727820
 30
0.0
 10
9.627584
 20
15.360210
 30
0.0
 10
9.525534
 20
14.996050
 30
0.0
 10
9.418816
 20
14.636140
 30
0.0
 10
9.309447
 20
14.281260
 30
0.0
 10
9.199446
 20
13.932210
 30
0.0
 10
9.105741
 20
13.555950
 30
0.0
 10
9.007226
 20
13.181200
 30
0.0
 10
8.904989
 20
12.807640
 30
0.0
 10
8.800116
 20
12.434940
 30
0.0
 10
8.693695
 20
12.062810
 30
0.0
 10
8.586813
 20
11.690910
 30
0.0
 10
8.480558
 20
11.318950
 30
0.0
 10
8.376016
 20
10.946590
 30
0.0
 10
8.274275
 20
10.573540
 30
0.0
 10
8.176422
 20
10.199470
 30
0.0
 10
8.083544
 20
9.824060
 30
0.0
 10
7.996729
 20
9.447010
 30
0.0
 10
7.917063
 20
9.068000
 30
0.0
 10
7.845634
 20
8.686710
 30
0.0
 10
7.783529
 20
8.302830
 30
0.0
 10
7.731836
 20
7.916040
 30
0.0
 10
7.664670
 20
7.606350
 30
0.0
 10
7.605739
 20
7.296530
 30
0.0
 10
7.554131
 20
6.986540
 30
0.0
 10
7.508935
 20
6.676360
 30
0.0
 10
7.469240
 20
6.365980
 30
0.0
 10
7.434134
 20
6.055360
 30
0.0
 10
7.402706
 20
5.744480
 30
0.0
 10
7.374044
 20
5.433320
 30
0.0
 10
7.347237
 20
5.121840
 30
0.0
 10
7.321374
 20
4.810040
 30
0.0
 10
7.295543
 20
4.497870
 30
0.0
 10
7.268833
 20
4.185320
 30
0.0
 10
7.240333
 20
3.872370
 30
0.0
 10
7.209131
 20
3.558980
 30
0.0
 10
7.174316
 20
3.245140
 30
0.0
 10
7.134976
 20
2.930820
 30
0.0
 10
7.051571
 20
2.636140
 30
0.0
 10
6.982030
 20
2.343640
 30
0.0
 10
6.928903
 20
2.056100
 30
0.0
 10
6.894741
 20
1.776290
 30
0.0
 10
6.882094
 20
1.506980
 30
0.0
 10
6.893513
 20
1.250930
 30
0.0
 10
6.931549
 20
1.010930
 30
0.0
 10
6.998752
 20
0.789730
 30
0.0
 10
7.097673
 20
0.590110
 30
0.0
 10
7.230863
 20
0.414840
 30
0.0
 10
7.400872
 20
0.266690
 30
0.0
 10
7.610252
 20
0.148430
 30
0.0
 10
7.861553
 20
0.062830
 30
0.0
 10
8.157324
 20
0.012630
 30
0.0
 10
8.500118
 20
0.000630
 30
0.0
 10
8.892485
 20
0.029630
 30
0.0
 10
9.295439
 20
0.070130
 30
0.0
 10
9.699265
 20
0.105830
 30
0.0
 10
10.103872
 20
0.137330
 30
0.0
 10
10.509170
 20
0.165330
 30
0.0
 10
10.915066
 20
0.190430
 30
0.0
 10
11.321470
 20
0.213330
 30
0.0
 10
11.728290
 20
0.234730
 30
0.0
 10
12.135436
 20
0.255230
 30
0.0
 10
12.542816
 20
0.275530
 30
0.0
 10
12.950339
 20
0.296330
 30
0.0
 10
13.357915
 20
0.318230
 30
0.0
 10
13.765452
 20
0.341930
 30
0.0
 10
14.172858
 20
0.368030
 30
0.0
 10
14.580043
 20
0.397230
 30
0.0
 10
14.986916
 20
0.430230
 30
0.0
 10
15.393386
 20
0.467730
 30
0.0
 10
16.170215
 20
0.490130
 30
0.0
 10
16.947291
 20
0.515330
 30
0.0
 10
17.724599
 20
0.542630
 30
0.0
 10
18.502124
 20
0.571430
 30
0.0
 10
19.279851
 20
0.601130
 30
0.0
 10
20.057763
 20
0.631130
 30
0.0
 10
20.835847
 20
0.660730
 30
0.0
 10
21.614087
 20
0.689430
 30
0.0
 10
22.392467
 20
0.716530
 30
0.0
 10
23.170973
 20
0.741430
 30
0.0
 10
23.949589
 20
0.763530
 30
0.0
 10
24.728299
 20
0.782230
 30
0.0
 10
25.507090
 20
0.796830
 30
0.0
 10
26.285945
 20
0.806830
 30
0.0
 10
27.064849
 20
0.811830
 30
0.0
 10
27.843787
 20
0.810830
 30
0.0
 10
28.574464
 20
0.824630
 30
0.0
 10
29.305796
 20
0.832630
 30
0.0
 10
30.037674
 20
0.836630
 30
0.0
 10
30.769990
 20
0.837140
 30
0.0
 10
31.502634
 20
0.836140
 30
0.0
 10
32.235496
 20
0.835140
 30
0.0
 10
32.968468
 20
0.834750
 30
0.0
 10
33.701439
 20
0.836750
 30
0.0
 10
34.434302
 20
0.842750
 30
0.0
 10
35.166947
 20
0.853850
 30
0.0
 10
35.899264
 20
0.871650
 30
0.0
 10
36.631145
 20
0.897350
 30
0.0
 10
37.362480
 20
0.932450
 30
0.0
 10
38.093160
 20
0.978350
 30
0.0
 10
38.823075
 20
1.036350
 30
0.0
 10
39.552117
 20
1.107850
 30
0.0
 10
39.860958
 20
1.219590
 30
0.0
 10
40.183745
 20
1.296790
 30
0.0
 10
40.517800
 20
1.345390
 30
0.0
 10
40.860444
 20
1.371390
 30
0.0
 10
41.208997
 20
1.380390
 30
0.0
 10
41.560782
 20
1.379390
 30
0.0
 10
41.913120
 20
1.373390
 30
0.0
 10
42.263332
 20
1.369390
 30
0.0
 10
42.608739
 20
1.372390
 30
0.0
 10
42.946663
 20
1.389290
 30
0.0
 10
43.274425
 20
1.425690
 30
0.0
 10
43.589345
 20
1.487590
 30
0.0
 10
43.888747
 20
1.581090
 30
0.0
 10
44.169950
 20
1.712120
 30
0.0
 10
44.430276
 20
1.886710
 30
0.0
 10
44.667047
 20
2.110880
 30
0.0
 10
44.648997
 20
2.609490
 30
0.0
 10
44.622617
 20
3.107720
 30
0.0
 10
44.587837
 20
3.605420
 30
0.0
 10
44.544577
 20
4.102400
 30
0.0
 10
44.492757
 20
4.598500
 30
0.0
 10
44.432307
 20
5.093550
 30
0.0
 10
44.363147
 20
5.587380
 30
0.0
 10
44.285207
 20
6.079830
 30
0.0
 10
44.198407
 20
6.570720
 30
0.0
 10
44.102677
 20
7.059880
 30
0.0
 10
43.997932
 20
7.547150
 30
0.0
 10
43.884099
 20
8.032350
 30
0.0
 10
43.761102
 20
8.515330
 30
0.0
 10
43.628866
 20
8.995900
 30
0.0
 10
43.487314
 20
9.473900
 30
0.0
 10
43.336371
 20
9.949160
 30
0.0
 10
43.170520
 20
10.408830
 30
0.0
 10
43.006096
 20
10.869620
 30
0.0
 10
42.843122
 20
11.331440
 30
0.0
 10
42.681619
 20
11.794190
 30
0.0
 10
42.521612
 20
12.257770
 30
0.0
 10
42.363123
 20
12.722080
 30
0.0
 10
42.206175
 20
13.187020
 30
0.0
 10
42.050791
 20
13.652500
 30
0.0
 10
41.896993
 20
14.118420
 30
0.0
 10
41.744806
 20
14.584680
 30
0.0
 10
41.594250
 20
15.051180
 30
0.0
 10
41.445350
 20
15.517820
 30
0.0
 10
41.298128
 20
15.984500
 30
0.0
 10
41.152608
 20
16.451140
 30
0.0
 10
41.008811
 20
16.917620
 30
0.0
 10
40.866761
 20
17.383850
 30
0.0
 10
40.841501
 20
17.585610
 30
0.0
 10
40.794691
 20
17.796670
 30
0.0
 10
40.732491
 20
18.014210
 30
0.0
 10
40.661051
 20
18.235390
 30
0.0
 10
40.586521
 20
18.457380
 30
0.0
 10
40.515061
 20
18.677350
 30
0.0
 10
40.452831
 20
18.892470
 30
0.0
 10
40.405981
 20
19.099900
 30
0.0
 10
40.380671
 20
19.296810
 30
0.0
 10
40.383071
 20
19.480380
 30
0.0
 10
40.419301
 20
19.647760
 30
0.0
 10
40.495531
 20
19.796130
 30
0.0
 10
40.617920
 20
19.922660
 30
0.0
 10
40.792621
 20
20.024510
 30
0.0
 10
41.025791
 20
20.098810
 30
0.0
 10
41.323584
 20
20.142810
 30
0.0
 10
41.450792
 20
20.231510
 30
0.0
 10
41.573872
 20
20.330910
 30
0.0
 10
41.693527
 20
20.440140
 30
0.0
 10
41.810457
 20
20.558410
 30
0.0
 10
41.925367
 20
20.684880
 30
0.0
 10
42.038957
 20
20.818720
 30
0.0
 10
42.151930
 20
20.959090
 30
0.0
 10
42.264989
 20
21.105170
 30
0.0
 10
42.378835
 20
21.256130
 30
0.0
 10
42.494171
 20
21.411130
 30
0.0
 10
42.611699
 20
21.569330
 30
0.0
 10
42.732121
 20
21.729920
 30
0.0
 10
42.856139
 20
21.892060
 30
0.0
 10
42.984456
 20
22.054900
 30
0.0
 10
43.117773
 20
22.217640
 30
0.0
 10
43.256794
 20
22.379420
 30
0.0
 10
43.466190
 20
22.594920
 30
0.0
 10
43.673474
 20
22.812010
 30
0.0
 10
43.878917
 20
23.030490
 30
0.0
 10
44.082792
 20
23.250160
 30
0.0
 10
44.285372
 20
23.470830
 30
0.0
 10
44.486930
 20
23.692300
 30
0.0
 10
44.687737
 20
23.914370
 30
0.0
 10
44.888067
 20
24.136840
 30
0.0
 10
45.088191
 20
24.359520
 30
0.0
 10
45.288383
 20
24.582200
 30
0.0
 10
45.488915
 20
24.804700
 30
0.0
 10
45.690059
 20
25.026800
 30
0.0
 10
45.892089
 20
25.248320
 30
0.0
 10
46.095276
 20
25.469050
 30
0.0
 10
46.299894
 20
25.688800
 30
0.0
 10
46.506214
 20
25.907370
 30
0.0
 10
46.690349
 20
26.233150
 30
0.0
 10
46.877845
 20
26.558650
 30
0.0
 10
47.067414
 20
26.884270
 30
0.0
 10
47.257769
 20
27.210410
 30
0.0
 10
47.447621
 20
27.537480
 30
0.0
 10
47.635682
 20
27.865890
 30
0.0
 10
47.820665
 20
28.196020
 30
0.0
 10
48.001281
 20
28.528290
 30
0.0
 10
48.176244
 20
28.863100
 30
0.0
 10
48.344264
 20
29.200850
 30
0.0
 10
48.504054
 20
29.541940
 30
0.0
 10
48.654326
 20
29.886790
 30
0.0
 10
48.793791
 20
30.235780
 30
0.0
 10
48.921163
 20
30.589330
 30
0.0
 10
49.035154
 20
30.947830
 30
0.0
 10
49.134474
 20
31.311690
 30
0.0
 10
49.318039
 20
31.829830
 30
0.0
 10
49.479658
 20
32.354820
 30
0.0
 10
49.619371
 20
32.885850
 30
0.0
 10
49.737215
 20
33.422080
 30
0.0
 10
49.833225
 20
33.962690
 30
0.0
 10
49.907445
 20
34.506830
 30
0.0
 10
49.959915
 20
35.053680
 30
0.0
 10
49.990665
 20
35.602420
 30
0.0
 10
49.999765
 20
36.152200
 30
0.0
 10
49.987195
 20
36.702200
 30
0.0
 10
49.953025
 20
37.251580
 30
0.0
 10
49.897295
 20
37.799530
 30
0.0
 10
49.820045
 20
38.345200
 30
0.0
 10
49.721305
 20
38.887760
 30
0.0
 10
49.601119
 20
39.426390
 30
0.0
 10
49.459524
 20
39.960260
 30
0.0
 10
49.376044
 20
40.187860
 30
0.0
 10
49.301444
 20
40.418720
 30
0.0
 10
49.233644
 20
40.651890
 30
0.0
 10
49.170574
 20
40.886400
 30
0.0
 10
49.110144
 20
41.121320
 30
0.0
 10
49.050284
 20
41.355680
 30
0.0
 10
48.988924
 20
41.588530
 30
0.0
 10
48.923974
 20
41.818910
 30
0.0
 10
48.853364
 20
42.045870
 30
0.0
 10
48.775014
 20
42.268470
 30
0.0
 10
48.686844
 20
42.485730
 30
0.0
 10
48.586780
 20
42.696710
 30
0.0
 10
48.472743
 20
42.900460
 30
0.0
 10
48.342656
 20
43.096020
 30
0.0
 10
48.194443
 20
43.282440
 30
0.0
 10
48.026025
 20
43.458760
 30
0.0
 10
47.947805
 20
43.720860
 30
0.0
 10
47.854995
 20
43.974820
 30
0.0
 10
47.748686
 20
44.221180
 30
0.0
 10
47.629964
 20
44.460480
 30
0.0
 10
47.499918
 20
44.693260
 30
0.0
 10
47.359635
 20
44.920050
 30
0.0
 10
47.210206
 20
45.141400
 30
0.0
 10
47.052719
 20
45.357840
 30
0.0
 10
46.888262
 20
45.569910
 30
0.0
 10
46.717925
 20
45.778160
 30
0.0
 10
46.542797
 20
45.983120
 30
0.0
 10
46.363966
 20
46.185320
 30
0.0
 10
46.182522
 20
46.385310
 30
0.0
 10
45.999553
 20
46.583630
 30
0.0
 10
45.816148
 20
46.780810
 30
0.0
 10
45.633396
 20
46.977400
 30
0.0
 10
45.246688
 20
47.312680
 30
0.0
 10
44.855125
 20
47.641710
 30
0.0
 10
44.458652
 20
47.964160
 30
0.0
 10
44.057213
 20
48.279670
 30
0.0
 10
43.650753
 20
48.587890
 30
0.0
 10
43.239214
 20
48.888470
 30
0.0
 10
42.822542
 20
49.181060
 30
0.0
 10
42.400681
 20
49.465320
 30
0.0
 10
41.973574
 20
49.740890
 30
0.0
 10
41.541167
 20
50.007430
 30
0.0
 10
41.103402
 20
50.264580
 30
0.0
 10
40.660224
 20
50.511990
 30
0.0
 10
40.211577
 20
50.749320
 30
0.0
 10
39.757406
 20
50.976210
 30
0.0
 10
39.297654
 20
51.192320
 30
0.0
 10
38.832266
 20
51.397290
 30
0.0
 10
38.135200
 20
51.724660
 30
0.0
 10
37.431548
 20
52.037280
 30
0.0
 10
36.721623
 20
52.334960
 30
0.0
 10
36.005735
 20
52.617560
 30
0.0
 10
35.284197
 20
52.884890
 30
0.0
 10
34.557320
 20
53.136790
 30
0.0
 10
33.825416
 20
53.373100
 30
0.0
 10
33.088796
 20
53.593660
 30
0.0
 10
32.347772
 20
53.798280
 30
0.0
 10
31.602656
 20
53.986810
 30
0.0
 10
30.853760
 20
54.159090
 30
0.0
 10
30.101394
 20
54.314930
 30
0.0
 10
29.345871
 20
54.454180
 30
0.0
 10
28.587503
 20
54.576680
 30
0.0
 10
27.826601
 20
54.682250
 30
0.0
 10
27.063476
 20
54.770750
 30
0.0
 10
27.192840
 20
54.885280
 30
0.0
 10
27.315959
 20
55.006440
 30
0.0
 10
27.432542
 20
55.133930
 30
0.0
 10
27.542300
 20
55.267470
 30
0.0
 10
27.644944
 20
55.406780
 30
0.0
 10
27.740184
 20
55.551570
 30
0.0
 10
27.827724
 20
55.701560
 30
0.0
 10
27.907284
 20
55.856460
 30
0.0
 10
27.978574
 20
56.015990
 30
0.0
 10
28.041294
 20
56.179860
 30
0.0
 10
28.095164
 20
56.347790
 30
0.0
 10
28.139884
 20
56.519490
 30
0.0
 10
28.175174
 20
56.694670
 30
0.0
 10
28.200744
 20
56.873060
 30
0.0
 10
28.216294
 20
57.054370
 30
0.0
 10
28.221494
 20
57.238310
 30
0.0
 10
28.204774
 20
57.566300
 30
0.0
 10
28.155724
 20
57.885170
 30
0.0
 10
28.075984
 20
58.193230
 30
0.0
 10
27.967221
 20
58.488850
 30
0.0
 10
27.831089
 20
58.770350
 30
0.0
 10
27.669240
 20
59.036090
 30
0.0
 10
27.483331
 20
59.284390
 30
0.0
 10
27.275016
 20
59.513600
 30
0.0
 10
27.045951
 20
59.722060
 30
0.0
 10
26.797790
 20
59.908100
 30
0.0
 10
26.532189
 20
60.070080
 30
0.0
 10
26.250803
 20
60.206330
 30
0.0
 10
25.955286
 20
60.315200
 30
0.0
 10
25.647294
 20
60.395000
 30
0.0
 10
25.328482
 20
60.444100
 30
0.0
 10
25.000505
 20
60.460800
 30
0.0
 10
25.000506
 20
60.460800
 30
0.0
 10
25.000506
 20
60.460800
 30
0.0
 10
25.000507
 20
60.460800
 30
0.0
 10
25.000507
 20
60.460800
 30
0.0
 10
25.000508
 20
60.460800
 30
0.0
 10
25.000509
 20
60.460800
 30
0.0
 10
25.000509
 20
60.460800
 30
0.0
 10
25.000510
 20
60.460800
 30
0.0
 10
25.000511
 20
60.460800
 30
0.0
 10
25.000511
 20
60.460800
 30
0.0
 10
25.000512
 20
60.460800
 30
0.0
 10
25.000513
 20
60.460800
 30
0.0
 10
25.000513
 20
60.460800
 30
0.0
 10
25.000514
 20
60.460800
 30
0.0
 10
25.000514
 20
60.460800
 30
0.0
  0
LWPOLYLINE
  5
101
100
AcDbEntity
  8
Calque_1
 62
7
100
AcDbPolyline
 90
64
 70
1
 10
25.000469
 20
58.961090
 30
0.0
 10
25.178006
 20
58.952090
 30
0.0
 10
25.350050
 20
58.926290
 30
0.0
 10
25.515779
 20
58.884190
 30
0.0
 10
25.674370
 20
58.826690
 30
0.0
 10
25.825000
 20
58.754690
 30
0.0
 10
25.966847
 20
58.668890
 30
0.0
 10
26.099089
 20
58.570190
 30
0.0
 10
26.220903
 20
58.459430
 30
0.0
 10
26.331466
 20
58.337430
 30
0.0
 10
26.429956
 20
58.205000
 30
0.0
 10
26.515546
 20
58.062980
 30
0.0
 10
26.587426
 20
57.912190
 30
0.0
 10
26.644766
 20
57.753470
 30
0.0
 10
26.686736
 20
57.587640
 30
0.0
 10
26.712526
 20
57.415530
 30
0.0
 10
26.721326
 20
57.237970
 30
0.0
 10
26.712526
 20
57.060410
 30
0.0
 10
26.686736
 20
56.888320
 30
0.0
 10
26.644766
 20
56.722510
 30
0.0
 10
26.587426
 20
56.563820
 30
0.0
 10
26.515546
 20
56.413080
 30
0.0
 10
26.429956
 20
56.271100
 30
0.0
 10
26.331466
 20
56.138720
 30
0.0
 10
26.220903
 20
56.016760
 30
0.0
 10
26.099089
 20
55.906050
 30
0.0
 10
25.966847
 20
55.807450
 30
0.0
 10
25.825000
 20
55.721750
 30
0.0
 10
25.674370
 20
55.649750
 30
0.0
 10
25.515779
 20
55.592350
 30
0.0
 10
25.350050
 20
55.550350
 30
0.0
 10
25.178006
 20
55.524550
 30
0.0
 10
25.000469
 20
55.515550
 30
0.0
 10
24.822913
 20
55.524550
 30
0.0
 10
24.650819
 20
55.550350
 30
0.0
 10
24.485013
 20
55.592350
 30
0.0
 10
24.326323
 20
55.649750
 30
0.0
 10
24.175576
 20
55.721750
 30
0.0
 10
24.033599
 20
55.807450
 30
0.0
 10
23.901218
 20
55.906050
 30
0.0
 10
23.779261
 20
56.016760
 30
0.0
 10
23.668555
 20
56.138720
 30
0.0
 10
23.569925
 20
56.271100
 30
0.0
 10
23.484205
 20
56.413080
 30
0.0
 10
23.412215
 20
56.563820
 30
0.0
 10
23.354785
 20
56.722510
 30
0.0
 10
23.312735
 20
56.888320
 30
0.0
 10
23.286895
 20
57.060410
 30
0.0
 10
23.278095
 20
57.237970
 30
0.0
 10
23.286895
 20
57.415530
 30
0.0
 10
23.312735
 20
57.587640
 30
0.0
 10
23.354785
 20
57.753470
 30
0.0
 10
23.412215
 20
57.912190
 30
0.0
 10
23.484205
 20
58.062980
 30
0.0
 10
23.569925
 20
58.205000
 30
0.0
 10
23.668555
 20
58.337430
 30
0.0
 10
23.779261
 20
58.459430
 30
0.0
 10
23.901218
 20
58.570190
 30
0.0
 10
24.033599
 20
58.668890
 30
0.0
 10
24.175576
 20
58.754690
 30
0.0
 10
24.326323
 20
58.826690
 30
0.0
 10
24.485013
 20
58.884190
 30
0.0
 10
24.650819
 20
58.926290
 30
0.0
 10
24.822913
 20
58.952090
 30
0.0
  0
ENDSEC
  0
SECTION
  2
OBJECTS
  0
DICTIONARY
  5
C
330
0
100
AcDbDictionary
  3
ACAD_GROUP
350
D
  3
ACAD_MLINESTYLE
350
17
  0
DICTIONARY
  5
D
330
C
100
AcDbDictionary
  0
DICTIONARY
  5
1A
330
C
100
AcDbDictionary
  0
DICTIONARY
  5
17
330
C
100
AcDbDictionary
  3
STANDARD
350
18
  0
DICTIONARY
  5
19
330
C
100
AcDbDictionary
  0
ENDSEC
  0
EOF
