<?xml version="1.0" encoding="UTF-8" standalone="no"?>
<!-- Created with Inkscape (http://www.inkscape.org/) -->

<svg
   xmlns:dc="http://purl.org/dc/elements/1.1/"
   xmlns:cc="http://creativecommons.org/ns#"
   xmlns:rdf="http://www.w3.org/1999/02/22-rdf-syntax-ns#"
   xmlns:svg="http://www.w3.org/2000/svg"
   xmlns="http://www.w3.org/2000/svg"
   xmlns:sodipodi="http://sodipodi.sourceforge.net/DTD/sodipodi-0.dtd"
   xmlns:inkscape="http://www.inkscape.org/namespaces/inkscape"
   width="210mm"
   height="297mm"
   viewBox="0 0 210 297"
   version="1.1"
   id="svg8"
   inkscape:version="0.92.1 r15371"
   sodipodi:docname="skull.svg">
  <defs
     id="defs2" />
  <sodipodi:namedview
     id="base"
     pagecolor="#ffffff"
     bordercolor="#666666"
     borderopacity="1.0"
     inkscape:pageopacity="0.0"
     inkscape:pageshadow="2"
     inkscape:zoom="2.8"
     inkscape:cx="392.45389"
     inkscape:cy="878.75946"
     inkscape:document-units="mm"
     inkscape:current-layer="layer1"
     showgrid="false"
     inkscape:window-width="1918"
     inkscape:window-height="1057"
     inkscape:window-x="0"
     inkscape:window-y="0"
     inkscape:window-maximized="0" />
  <metadata
     id="metadata5">
    <rdf:RDF>
      <cc:Work
         rdf:about="">
        <dc:format>image/svg+xml</dc:format>
        <dc:type
           rdf:resource="http://purl.org/dc/dcmitype/StillImage" />
        <dc:title></dc:title>
      </cc:Work>
    </rdf:RDF>
  </metadata>
  <g
     inkscape:label="Calque 1"
     inkscape:groupmode="layer"
     id="layer1">
    <path
       style="color:#000000;font-style:normal;font-variant:normal;font-weight:normal;font-stretch:normal;font-size:medium;line-height:normal;font-family:sans-serif;font-variant-ligatures:normal;font-variant-position:normal;font-variant-caps:normal;font-variant-numeric:normal;font-variant-alternates:normal;font-feature-settings:normal;text-indent:0;text-align:start;text-decoration:none;text-decoration-line:none;text-decoration-style:solid;text-decoration-color:#000000;letter-spacing:normal;word-spacing:normal;text-transform:none;writing-mode:lr-tb;direction:ltr;text-orientation:mixed;dominant-baseline:auto;baseline-shift:baseline;text-anchor:start;white-space:normal;shape-padding:0;clip-rule:nonzero;display:inline;overflow:visible;visibility:visible;opacity:1;isolation:auto;mix-blend-mode:normal;color-interpolation:sRGB;color-interpolation-filters:linearRGB;solid-color:#000000;solid-opacity:1;vector-effect:none;fill:#008000;fill-opacity:1;fill-rule:nonzero;stroke:none;stroke-width:1.5;stroke-linecap:butt;stroke-linejoin:miter;stroke-miterlimit:4;stroke-dasharray:none;stroke-dashoffset:0;stroke-opacity:1;color-rendering:auto;image-rendering:auto;shape-rendering:auto;text-rendering:auto;enable-background:accumulate"
       d="m 134.21671,32.152621 c -1.77072,0 -3.22254,1.45183 -3.22254,3.22254 0,1.050698 0.51345,1.986079 1.29915,2.575555 -1.99747,0.209942 -3.9763,0.517528 -5.88905,1.104326 -2.5939,0.941459 -5.2065,1.893147 -7.5923,3.374988 -1.9513,1.070628 -3.57997,2.612234 -5.21777,4.071585 -1.0344,1.381321 -2.20721,2.790423 -2.80551,4.477764 -0.6376,0.928129 -0.82052,1.837205 -1.07952,2.827215 -0.8233,2.50834 -0.48169,5.231146 0.0558,7.776787 0.3212,0.917422 0.59351,1.873647 1.10381,2.829285 0.74129,1.785749 2.00453,3.265522 3.44113,4.541843 -0.4808,0.888738 1.36673,1.663615 2.26963,2.391584 0.9218,0.32163 2.00643,0.466225 2.39003,1.492414 0.6747,1.871141 0.0308,3.997852 -0.55397,5.842537 -0.485,2.011265 -1.22161,3.944991 -1.46761,6.016173 -0.3818,1.651349 -0.37336,3.307514 -0.59686,4.985223 -0.47726,1.572543 -0.47184,3.169978 1.75751,2.901117 2.1466,-0.230201 4.3343,-0.225367 6.5009,-0.438216 4.1424,-0.111334 8.296,-0.365715 12.4504,-0.342615 3.895,-0.09178 7.82263,0.123942 11.70833,-0.296108 1.6052,-0.698865 3.91973,0.334367 5.11493,-1.004073 -0.0742,-2.65994 -0.50046,-5.311161 -1.33067,-7.838281 -0.8883,-2.44839 -1.71671,-4.948954 -2.46961,-7.434688 -0.0663,-1.046181 -1.31468,-2.610276 0.45682,-2.759004 0.6907,-0.44292 1.17531,-1.377717 1.93321,-2.236557 1.1229,-1.144741 2.14402,-2.365737 3.24942,-3.527949 0.9708,-1.738958 2.13996,-3.448722 2.62826,-5.404321 1.0376,-2.74361 1.13724,-5.815467 0.32504,-8.648567 -0.47259,-1.203481 -0.4777,-2.586755 -1.4335,-3.498496 -0.3763,-1.420529 -1.42162,-2.470816 -2.39262,-3.518648 -2.0496,-1.804149 -4.30393,-3.357005 -6.80113,-4.419883 -3.69957,-1.785062 -7.69342,-2.947443 -11.76879,-3.373438 0.70608,-0.592672 1.15806,-1.480029 1.15806,-2.467552 0,-1.77071 -1.45028,-3.22254 -3.22099,-3.22254 z m 0,1.499648 c 0.96005,0 1.72083,0.762841 1.72083,1.722892 0,0.960054 -0.76078,1.722377 -1.72083,1.722377 -0.96006,0 -1.72237,-0.762323 -1.72237,-1.722377 0,-0.960051 0.76231,-1.72289 1.72237,-1.722892 z"
       id="path4578"
       inkscape:connector-curvature="0" />
    <path
       style="fill:#000000;stroke-width:0.02593222"
       d="m 57.444042,93.862294 c -2.2299,0.26919 -2.2352,-1.32813 -1.7579,-2.9008 0.2235,-1.67771 0.2149,-3.3338 0.5967,-4.98515 0.246,-2.07118 0.9824,-4.00488 1.4674,-6.01614 0.5848,-1.84469 1.229,-3.97142 0.5543,-5.84256 -0.3836,-1.02619 -1.4682,-1.1707 -2.39,-1.49233 -0.9029,-0.72797 -2.7506,-1.50323 -2.2698,-2.39197 -1.4366,-1.27632 -2.6996,-2.7558 -3.4409,-4.54155 -0.5103,-0.95564 -0.7827,-1.91223 -1.1039,-2.82965 -0.5375,-2.54564 -0.8793,-5.26796 -0.056,-7.7763 0.259,-0.99001 0.4417,-1.89952 1.0793,-2.82765 0.5983,-1.68734 1.7713,-3.09652 2.8057,-4.47784 1.6378,-1.45935 3.2666,-3.00072 5.2179,-4.07135 2.3858,-1.48184 4.998102,-2.43347 7.592002,-3.37493 2.7259,-0.83626 5.5852,-1.10998 8.4429,-1.33377 4.5703,0.28099 9.069,1.50087 13.2013,3.49473 2.4972,1.06288 4.7518,2.6157 6.8014,4.41985 0.971,1.04783 2.016,2.09803 2.3923,3.51856 0.9558,0.91174 0.9612,2.29545 1.4338,3.49893 0.8122,2.8331 0.7124,5.90455 -0.3252,8.64816 -0.4883,1.9556 -1.6576,3.66537 -2.6284,5.40433 -1.1054,1.16221 -2.1265,2.38338 -3.2494,3.52812 -0.7579,0.85884 -1.2424,1.79367 -1.9331,2.23659 -1.7715,0.14873 -0.5229,1.71287 -0.4566,2.75905 0.7529,2.48573 1.5811,4.98611 2.4694,7.4345 0.8302,2.52712 1.2564,5.17865 1.3306,7.83859 -1.1952,1.33844 -3.5093,0.3048 -5.1145,1.00367 -3.8857,0.42005 -7.8134,0.20465 -11.7084,0.29643 -4.1544,-0.0231 -8.3082,0.23127 -12.4506,0.3426 -2.1666,0.21285 -4.354102,0.20768 -6.500702,0.43788 z m 1.1184,-0.91188 c 1.4717,-0.48929 4.350102,0.81657 4.418002,-1.44976 -0.1408,-1.60316 0.5216,-3.28842 0.4026,-4.76863 0.3965,-1.43399 0.2215,-2.95092 0.4464,-4.3457 -0.1367,-1.56324 0.2528,-3.21434 2.2227,-2.86907 1.3198,0.41434 -0.01,2.10054 0.1813,3.09019 -0.6072,2.74335 -0.4003,5.57655 -0.8585,8.31708 -0.7037,1.71348 0.8086,1.85084 2.1782,1.63296 1.5184,-0.234 4.2403,0.26816 5.0852,-0.45889 -0.6342,-1.21712 0.6077,-2.71859 0.1005,-4.10304 0.2512,-2.00214 0.1428,-4.0238 0.1654,-6.03918 0.3193,-1.13288 -0.841,-2.99599 0.5584,-3.39927 0.6128,-0.32566 2.4713,-0.26331 2.3756,0.52519 0.4191,1.08977 -0.5611,2.51196 -0.3504,3.7651 0.1498,1.56154 -0.4352,2.97488 -0.1876,4.5262 -0.1552,1.3106 0.107,2.75423 0.1384,4.11722 -0.3709,1.96138 3.4513,0.34336 4.8483,0.8006 0.8399,-0.32554 -0.3339,-1.90274 0.2049,-2.9485 -0.1534,-1.23148 0.2028,-2.56411 -0.1214,-3.831 -0.1459,-1.74201 -0.1881,-3.61402 -0.4058,-5.2624 -0.2064,-1.05989 0.6741,-1.73679 1.751,-1.65119 1.2027,0.52241 0.1537,1.95462 0.4346,2.98186 -0.1366,2.44712 0.1032,4.89045 0.4332,7.32366 -0.346,1.16528 0.3931,2.36989 0.736,3.34181 2.0312,-0.0352 4.05,-0.26092 6.0372,-0.66572 2.0892,0.32058 3.3192,-0.71987 2.7333,-2.83178 0.038,-1.42771 -0.5403,-2.80723 -0.8353,-4.13415 -0.5073,-1.67095 -1.0529,-3.34777 -1.6051,-5.01783 -0.4743,-1.34053 -1.0278,-2.59711 -1.2887,-4.02927 0.1023,-0.92461 -1.8519,-2.46404 -0.3126,-2.63974 0.9538,1.01315 1.885,-1.09219 2.8844,-1.5283 1.4731,-1.9143 3.4693,-3.555 4.5947,-5.75195 0.8694,-1.48249 1.6393,-3.09203 2.0418,-4.82248 0.6994,-1.88962 0.4781,-4.00908 0.1672,-5.93923 -0.736,-3.12565 -2.3856,-5.96577 -4.7322,-8.15871 -1.3913,-1.33789 -3.1333,-2.29186 -4.8157,-3.22762 -2.3343,-0.92684 -4.5644,-2.12164 -7.0475,-2.65306 -3.1937,-0.9046 -6.582,-1.57873 -9.9061,-0.97728 -1.5072,0.10659 -2.6355,0.24411 -4.0584,0.64965 -1.764,0.46472 -3.474,1.2117 -5.1457,1.79827 -0.7628,0.37768 -1.429502,0.72665 -2.296802,1.23695 -1.1519,0.5605 -2.1868,1.27442 -3.2718,1.9838 -0.8111,0.50635 -1.3418,1.15635 -2.1426,1.87997 -0.3907,0.5925 -1.5566,1.08125 -1.3492,1.3974 -0.5152,0.73686 -0.8929,1.18703 -1.418,1.94305 -0.2251,0.44771 -0.5345,1.03463 -0.8299,1.5479 -0.4016,0.43168 -0.3713,1.23801 -0.81,1.72591 -0.2276,0.65733 -0.3503,1.37215 -0.5008,2.21561 -0.3023,1.04442 -0.4532,1.93937 -0.3486,2.50224 -0.019,0.97506 0.2494,1.78356 0.2995,2.79336 0.088,1.98213 1.225,3.63968 1.97,5.39258 0.9169,1.20744 1.8259,2.43246 3.077,3.36063 0.557,1.06874 1.883,1.3831 2.8997,1.83485 0.9075,0.20421 2.7389,0.23056 2.1618,1.48079 0,2.33624 -0.4417,4.64299 -1.1424,6.86106 -0.4085,1.38855 -0.8052,2.69823 -0.9953,4.13155 -0.3634,2.52621 -0.8049,5.10098 -0.6724,7.65214 0.4519,0.50609 1.2089,0.75918 1.9015,0.69417 z m 13.502302,-22.69213 c -1.2643,-0.011 -3.5029,-1.18138 -2.472,-2.65299 0.7486,-1.31892 0.9728,-2.89228 1.7867,-4.22151 -0.072,-1.23657 1.1265,-2.10134 2.2713,-2.00697 1.5768,0.43145 1.9934,2.29836 2.6669,3.58851 0.2119,0.73444 0.9379,1.62004 1.2706,2.60806 1.1314,1.53964 -1.3246,2.21096 -2.4765,2.20176 -0.9823,0.28776 -2.0144,0.56131 -3.047,0.48314 z m -9.7894,-8.59575 c -1.3022,3e-4 -2.381402,-0.61505 -3.213902,-1.61648 -0.5435,-0.77508 -0.7421,-1.98833 -0.6526,-2.98714 0.3905,-2.04794 2.1509,-3.63469 4.113902,-4.07419 1.1993,-0.25187 2.5894,-0.11571 3.7562,0.60446 0.9996,0.60492 1.2924,1.81799 1.6865,2.79962 0.8569,1.17501 -0.2189,2.66351 -1.1585,3.49309 -0.7747,0.46399 -1.3203,0.69588 -1.935,0.94421 -0.4729,0.47628 -1.7367,0.85659 -2.5966,0.83643 z m 20.8624,-1.38338 c -1.4466,-0.33615 -2.8161,-1.31964 -3.4598,-2.65263 -0.2059,-1.37457 0.061,-2.83802 1.0274,-3.87734 0.5773,-1.0036 1.71,-1.34155 2.4732,-2.102 1.0254,0.61506 2.591,-0.47105 3.2693,0.85059 1.4329,0.96876 1.9489,2.86458 1.7459,4.51639 -0.5042,1.19753 -1.1346,2.43745 -2.5146,2.81168 -0.7962,0.34193 -1.6744,0.50977 -2.5414,0.45331 z m -16.9337,21.90182 c -0.061,-0.0891 -0.075,0.0494 0,0 z M 51.254142,50.736564 c 0.2366,-0.0719 0.1047,-0.007 0,0 z"
       id="path4555"
       inkscape:connector-curvature="0"
       sodipodi:nodetypes="cccccccccccccccccccccccccccccccccccccccccccccccccccccccccccccccccccccccccccccccccccccccccccccccccccccccccccccccccccccc" />
  </g>
</svg>
